<svg width="51" height="50" viewBox="0 0 51 50" fill="none" xmlns="http://www.w3.org/2000/svg">
<path d="M45.9604 50H5.96045C4.63437 50 3.3626 49.3415 2.42492 48.1694C1.48723 46.9973 0.960449 45.4076 0.960449 43.75V5.97813C1.01653 4.3681 1.56797 2.84737 2.49964 1.73344C3.43132 0.619509 4.6712 -0.00152262 5.96045 2.8035e-06H45.9604C47.2865 2.8035e-06 48.5583 0.658483 49.496 1.83059C50.4337 3.00269 50.9604 4.5924 50.9604 6.25V43.75C50.9604 45.4076 50.4337 46.9973 49.496 48.1694C48.5583 49.3415 47.2865 50 45.9604 50ZM5.96045 12.0875V43.75H45.9604V12.0875L25.9604 28.75L5.96045 12.0875ZM7.96045 6.25L25.9604 21.25L43.9604 6.25H7.96045Z" fill="#4F4F4F"/>
</svg>
