<svg width="50" height="50" viewBox="0 0 50 50" fill="none" xmlns="http://www.w3.org/2000/svg">
<path d="M30.5664 32.5846C30.8485 32.8668 30.8485 33.1489 30.5664 33.431C29.4162 34.5812 27.5608 35.1562 25 35.1562C22.4392 35.1562 20.5838 34.5812 19.4336 33.431C19.1515 33.1489 19.1515 32.8668 19.4336 32.5846C19.5421 32.4544 19.6832 32.3893 19.8568 32.3893C20.0304 32.3893 20.1714 32.4544 20.2799 32.5846C21.1914 33.4961 22.7648 33.9518 25 33.9518C27.2352 33.9518 28.8086 33.4961 29.7201 32.5846C29.8286 32.4544 29.9696 32.3893 30.1432 32.3893C30.3168 32.3893 30.4579 32.4544 30.5664 32.5846ZM22.0052 27.5065C22.0052 28.1793 21.7556 28.7652 21.2565 29.2643C20.7574 29.7635 20.1714 30.013 19.4987 30.013C18.826 30.013 18.24 29.7635 17.7409 29.2643C17.2418 28.7652 16.9922 28.1793 16.9922 27.5065C16.9922 26.8121 17.2363 26.2207 17.7246 25.7324C18.2129 25.2441 18.8043 25 19.4987 25C20.1931 25 20.7845 25.2441 21.2728 25.7324C21.7611 26.2207 22.0052 26.8121 22.0052 27.5065ZM33.0078 27.5065C33.0078 28.1793 32.7582 28.7652 32.2591 29.2643C31.76 29.7635 31.174 30.013 30.5013 30.013C29.8286 30.013 29.2426 29.7635 28.7435 29.2643C28.2444 28.7652 27.9948 28.1793 27.9948 27.5065C27.9948 26.8121 28.2389 26.2207 28.7272 25.7324C29.2155 25.2441 29.8069 25 30.5013 25C31.1957 25 31.7871 25.2441 32.2754 25.7324C32.7637 26.2207 33.0078 26.8121 33.0078 27.5065ZM40.0065 24.1536C40.0065 23.2422 39.681 22.4609 39.0299 21.8099C38.3789 21.1589 37.5868 20.8333 36.6536 20.8333C35.7422 20.8333 34.9501 21.1697 34.2773 21.8424C31.8251 20.1497 28.9279 19.26 25.5859 19.1732L27.3437 11.263L32.9102 12.5326C32.9319 13.227 33.1868 13.8129 33.6751 14.2904C34.1634 14.7678 34.7439 15.0065 35.4167 15.0065C36.1111 15.0065 36.7025 14.7624 37.1908 14.2741C37.679 13.7858 37.9232 13.1944 37.9232 12.5C37.9232 11.8056 37.679 11.2142 37.1908 10.7259C36.7025 10.2376 36.1111 9.99349 35.4167 9.99349C34.375 9.99349 33.6263 10.4601 33.1706 11.3932L27.0182 10.026C26.6493 9.91753 26.4214 10.0586 26.3346 10.4492L24.3815 19.1732C21.0395 19.3034 18.1641 20.204 15.7552 21.875C15.1042 21.1806 14.3012 20.8333 13.3464 20.8333C12.4132 20.8333 11.6211 21.1589 10.9701 21.8099C10.319 22.4609 9.99349 23.2422 9.99349 24.1536C9.99349 24.8047 10.1671 25.4015 10.5143 25.944C10.8615 26.4865 11.3173 26.8989 11.8815 27.181C11.773 27.7235 11.7188 28.2444 11.7188 28.7435C11.7188 31.3911 13.0208 33.6534 15.625 35.5306C18.2292 37.4078 21.365 38.3464 25.0326 38.3464C28.7218 38.3464 31.8685 37.4078 34.4727 35.5306C37.0768 33.6534 38.3789 31.3911 38.3789 28.7435C38.3789 28.201 38.3138 27.6693 38.1836 27.1484C38.7261 26.8663 39.1656 26.4594 39.502 25.9277C39.8383 25.396 40.0065 24.8047 40.0065 24.1536ZM50 9.375V40.625C50 43.2075 49.0831 45.4156 47.2493 47.2493C45.4156 49.0831 43.2075 50 40.625 50H9.375C6.79253 50 4.58442 49.0831 2.75065 47.2493C0.916884 45.4156 0 43.2075 0 40.625V9.375C0 6.79253 0.916884 4.58442 2.75065 2.75065C4.58442 0.916884 6.79253 0 9.375 0H40.625C43.2075 0 45.4156 0.916884 47.2493 2.75065C49.0831 4.58442 50 6.79253 50 9.375Z" fill="#4F4F4F"/>
</svg>
