<svg width="1920" height="390" viewBox="0 0 1920 390" fill="none" xmlns="http://www.w3.org/2000/svg">
<path d="M733.136 373.726V376.708H737.868V378.248H733.136V382H731.316V372.2H738.47V373.726H733.136ZM747.58 380.474V382H740.23V372.2H747.384V373.726H742.05V376.274H746.782V377.772H742.05V380.474H747.58ZM756.553 376.904C757.094 377.081 757.524 377.38 757.841 377.8C758.158 378.211 758.317 378.724 758.317 379.34C758.317 380.189 757.99 380.847 757.337 381.314C756.684 381.771 755.732 382 754.481 382H749.609V372.2H754.201C755.358 372.2 756.25 372.429 756.875 372.886C757.5 373.334 757.813 373.955 757.813 374.748C757.813 375.233 757.701 375.663 757.477 376.036C757.253 376.409 756.945 376.699 756.553 376.904ZM751.429 373.628V376.33H754.005C754.64 376.33 755.125 376.218 755.461 375.994C755.806 375.761 755.979 375.425 755.979 374.986C755.979 374.538 755.806 374.202 755.461 373.978C755.125 373.745 754.64 373.628 754.005 373.628H751.429ZM754.369 380.572C755.778 380.572 756.483 380.101 756.483 379.158C756.483 378.215 755.778 377.744 754.369 377.744H751.429V380.572H754.369ZM766.671 382L764.669 379.13C764.585 379.139 764.459 379.144 764.291 379.144H762.079V382H760.259V372.2H764.291C765.141 372.2 765.878 372.34 766.503 372.62C767.138 372.9 767.623 373.301 767.959 373.824C768.295 374.347 768.463 374.967 768.463 375.686C768.463 376.423 768.281 377.058 767.917 377.59C767.563 378.122 767.049 378.519 766.377 378.78L768.631 382H766.671ZM766.629 375.686C766.629 375.061 766.424 374.58 766.013 374.244C765.603 373.908 765.001 373.74 764.207 373.74H762.079V377.646H764.207C765.001 377.646 765.603 377.478 766.013 377.142C766.424 376.797 766.629 376.311 766.629 375.686ZM774.714 382.14C773.36 382.14 772.306 381.762 771.55 381.006C770.794 380.241 770.416 379.149 770.416 377.73V372.2H772.236V377.66C772.236 379.583 773.066 380.544 774.728 380.544C776.38 380.544 777.206 379.583 777.206 377.66V372.2H778.998V377.73C778.998 379.149 778.62 380.241 777.864 381.006C777.117 381.762 776.067 382.14 774.714 382.14ZM787.697 379.732H782.797L781.831 382H779.955L784.365 372.2H786.157L790.581 382H788.677L787.697 379.732ZM787.095 378.304L785.247 374.02L783.413 378.304H787.095ZM798.24 382L796.238 379.13C796.154 379.139 796.028 379.144 795.86 379.144H793.648V382H791.828V372.2H795.86C796.709 372.2 797.446 372.34 798.072 372.62C798.706 372.9 799.192 373.301 799.528 373.824C799.864 374.347 800.032 374.967 800.032 375.686C800.032 376.423 799.85 377.058 799.486 377.59C799.131 378.122 798.618 378.519 797.946 378.78L800.2 382H798.24ZM798.198 375.686C798.198 375.061 797.992 374.58 797.582 374.244C797.171 373.908 796.569 373.74 795.776 373.74H793.648V377.646H795.776C796.569 377.646 797.171 377.478 797.582 377.142C797.992 376.797 798.198 376.311 798.198 375.686ZM806.159 378.542V382H804.339V378.57L800.489 372.2H802.435L805.305 376.974L808.203 372.2H809.995L806.159 378.542ZM821.454 380.46V382H814.23V380.782L818.122 377.086C818.561 376.666 818.855 376.302 819.004 375.994C819.163 375.677 819.242 375.364 819.242 375.056C819.242 374.599 819.088 374.249 818.78 374.006C818.472 373.763 818.02 373.642 817.422 373.642C816.424 373.642 815.658 373.983 815.126 374.664L813.852 373.684C814.235 373.171 814.748 372.774 815.392 372.494C816.046 372.205 816.774 372.06 817.576 372.06C818.64 372.06 819.49 372.312 820.124 372.816C820.759 373.32 821.076 374.006 821.076 374.874C821.076 375.406 820.964 375.905 820.74 376.372C820.516 376.839 820.087 377.371 819.452 377.968L816.834 380.46H821.454ZM826.552 382.14C825.768 382.14 825.068 381.944 824.452 381.552C823.836 381.151 823.35 380.572 822.996 379.816C822.641 379.051 822.464 378.145 822.464 377.1C822.464 376.055 822.641 375.154 822.996 374.398C823.35 373.633 823.836 373.054 824.452 372.662C825.068 372.261 825.768 372.06 826.552 372.06C827.336 372.06 828.036 372.261 828.652 372.662C829.277 373.054 829.767 373.633 830.122 374.398C830.476 375.154 830.654 376.055 830.654 377.1C830.654 378.145 830.476 379.051 830.122 379.816C829.767 380.572 829.277 381.151 828.652 381.552C828.036 381.944 827.336 382.14 826.552 382.14ZM826.552 380.558C827.252 380.558 827.802 380.269 828.204 379.69C828.614 379.111 828.82 378.248 828.82 377.1C828.82 375.952 828.614 375.089 828.204 374.51C827.802 373.931 827.252 373.642 826.552 373.642C825.861 373.642 825.31 373.931 824.9 374.51C824.498 375.089 824.298 375.952 824.298 377.1C824.298 378.248 824.498 379.111 824.9 379.69C825.31 380.269 825.861 380.558 826.552 380.558ZM838.913 380.46V382H831.689V380.782L835.581 377.086C836.02 376.666 836.314 376.302 836.463 375.994C836.622 375.677 836.701 375.364 836.701 375.056C836.701 374.599 836.547 374.249 836.239 374.006C835.931 373.763 835.479 373.642 834.881 373.642C833.883 373.642 833.117 373.983 832.585 374.664L831.311 373.684C831.694 373.171 832.207 372.774 832.851 372.494C833.505 372.205 834.233 372.06 835.035 372.06C836.099 372.06 836.949 372.312 837.583 372.816C838.218 373.32 838.535 374.006 838.535 374.874C838.535 375.406 838.423 375.905 838.199 376.372C837.975 376.839 837.546 377.371 836.911 377.968L834.293 380.46H838.913ZM847.062 380.46V382H839.838V380.782L843.73 377.086C844.168 376.666 844.462 376.302 844.612 375.994C844.77 375.677 844.85 375.364 844.85 375.056C844.85 374.599 844.696 374.249 844.388 374.006C844.08 373.763 843.627 373.642 843.03 373.642C842.031 373.642 841.266 373.983 840.734 374.664L839.46 373.684C839.842 373.171 840.356 372.774 841 372.494C841.653 372.205 842.381 372.06 843.184 372.06C844.248 372.06 845.097 372.312 845.732 372.816C846.366 373.32 846.684 374.006 846.684 374.874C846.684 375.406 846.572 375.905 846.348 376.372C846.124 376.839 845.694 377.371 845.06 377.968L842.442 380.46H847.062Z" fill="#32EEFF"/>
<path d="M688.535 309H692.423V292.2H688.535V309ZM703.994 295.896C702.242 295.896 700.73 296.496 699.722 297.6V296.088H696.146V309H699.89V302.616C699.89 300.24 701.186 299.136 702.986 299.136C704.642 299.136 705.602 300.096 705.602 302.184V309H709.346V301.608C709.346 297.672 707.042 295.896 703.994 295.896ZM720.06 305.736C719.652 306.048 719.1 306.216 718.548 306.216C717.54 306.216 716.94 305.616 716.94 304.512V299.256H720.156V296.376H716.94V293.232H713.196V296.376H711.204V299.256H713.196V304.56C713.196 307.632 714.972 309.192 718.02 309.192C719.172 309.192 720.3 308.928 721.068 308.376L720.06 305.736ZM735.419 302.592C735.419 298.44 732.491 295.896 728.699 295.896C724.763 295.896 721.811 298.68 721.811 302.544C721.811 306.384 724.715 309.192 729.179 309.192C731.507 309.192 733.307 308.472 734.507 307.104L732.515 304.944C731.627 305.784 730.643 306.192 729.275 306.192C727.307 306.192 725.939 305.208 725.579 303.6H735.347C735.371 303.288 735.419 302.88 735.419 302.592ZM728.723 298.728C730.403 298.728 731.627 299.784 731.891 301.416H725.531C725.795 299.76 727.019 298.728 728.723 298.728ZM747.68 296.088V297.744C746.696 296.496 745.208 295.896 743.408 295.896C739.832 295.896 736.952 298.368 736.952 302.136C736.952 305.904 739.832 308.376 743.408 308.376C745.088 308.376 746.504 307.848 747.488 306.768V307.32C747.488 309.648 746.336 310.848 743.696 310.848C742.04 310.848 740.24 310.272 739.136 309.384L737.648 312.072C739.16 313.248 741.536 313.848 743.984 313.848C748.64 313.848 751.232 311.64 751.232 306.84V296.088H747.68ZM744.152 305.304C742.184 305.304 740.744 304.032 740.744 302.136C740.744 300.24 742.184 298.968 744.152 298.968C746.12 298.968 747.536 300.24 747.536 302.136C747.536 304.032 746.12 305.304 744.152 305.304ZM758.292 297.792V296.088H754.716V309H758.46V302.904C758.46 300.432 759.828 299.304 761.892 299.304C762.18 299.304 762.42 299.328 762.732 299.352V295.896C760.74 295.896 759.204 296.544 758.292 297.792ZM770.096 295.896C768.032 295.896 765.944 296.448 764.528 297.456L765.872 300.072C766.808 299.328 768.224 298.872 769.592 298.872C771.608 298.872 772.568 299.808 772.568 301.416H769.592C765.656 301.416 764.048 303 764.048 305.28C764.048 307.512 765.848 309.192 768.872 309.192C770.768 309.192 772.112 308.568 772.808 307.392V309H776.312V301.632C776.312 297.72 774.032 295.896 770.096 295.896ZM769.808 306.672C768.488 306.672 767.696 306.048 767.696 305.112C767.696 304.248 768.248 303.6 770 303.6H772.568V304.92C772.136 306.096 771.056 306.672 769.808 306.672ZM787.021 305.736C786.613 306.048 786.061 306.216 785.509 306.216C784.501 306.216 783.901 305.616 783.901 304.512V299.256H787.117V296.376H783.901V293.232H780.157V296.376H778.165V299.256H780.157V304.56C780.157 307.632 781.933 309.192 784.981 309.192C786.133 309.192 787.261 308.928 788.029 308.376L787.021 305.736ZM792.002 294.288C793.394 294.288 794.33 293.376 794.33 292.128C794.33 290.976 793.394 290.112 792.002 290.112C790.61 290.112 789.674 291.024 789.674 292.2C789.674 293.376 790.61 294.288 792.002 294.288ZM790.13 309H793.874V296.088H790.13V309ZM803.493 309.192C807.597 309.192 810.573 306.432 810.573 302.544C810.573 298.656 807.597 295.896 803.493 295.896C799.389 295.896 796.389 298.656 796.389 302.544C796.389 306.432 799.389 309.192 803.493 309.192ZM803.493 306.12C801.621 306.12 800.181 304.776 800.181 302.544C800.181 300.312 801.621 298.968 803.493 298.968C805.365 298.968 806.781 300.312 806.781 302.544C806.781 304.776 805.365 306.12 803.493 306.12ZM820.924 295.896C819.172 295.896 817.66 296.496 816.652 297.6V296.088H813.076V309H816.82V302.616C816.82 300.24 818.116 299.136 819.916 299.136C821.572 299.136 822.532 300.096 822.532 302.184V309H826.276V301.608C826.276 297.672 823.972 295.896 820.924 295.896ZM853.89 296.088L850.746 304.824L847.674 296.088H844.506L841.338 304.824L838.29 296.088H834.762L839.418 309H843.018L846.018 300.984L848.922 309H852.522L857.202 296.088H853.89ZM860.815 294.288C862.207 294.288 863.143 293.376 863.143 292.128C863.143 290.976 862.207 290.112 860.815 290.112C859.423 290.112 858.487 291.024 858.487 292.2C858.487 293.376 859.423 294.288 860.815 294.288ZM858.943 309H862.687V296.088H858.943V309ZM873.482 305.736C873.074 306.048 872.522 306.216 871.97 306.216C870.962 306.216 870.362 305.616 870.362 304.512V299.256H873.578V296.376H870.362V293.232H866.618V296.376H864.626V299.256H866.618V304.56C866.618 307.632 868.394 309.192 871.442 309.192C872.594 309.192 873.722 308.928 874.49 308.376L873.482 305.736ZM884.439 295.896C882.783 295.896 881.343 296.424 880.335 297.432V291.192H876.591V309H880.335V302.616C880.335 300.24 881.631 299.136 883.431 299.136C885.087 299.136 886.047 300.096 886.047 302.184V309H889.791V301.608C889.791 297.672 887.487 295.896 884.439 295.896ZM720.444 340.288C725.22 340.288 728.052 337.552 728.052 332.608V323.2H724.212V332.464C724.212 335.656 722.844 336.976 720.468 336.976C718.116 336.976 716.724 335.656 716.724 332.464V323.2H712.836V332.608C712.836 337.552 715.668 340.288 720.444 340.288ZM737.414 340.288C742.214 340.288 744.542 337.888 744.542 335.08C744.542 328.912 734.774 331.048 734.774 327.952C734.774 326.896 735.662 326.032 737.966 326.032C739.454 326.032 741.062 326.464 742.622 327.352L743.822 324.4C742.262 323.416 740.102 322.912 737.99 322.912C733.214 322.912 730.91 325.288 730.91 328.144C730.91 334.384 740.678 332.224 740.678 335.368C740.678 336.4 739.742 337.168 737.438 337.168C735.422 337.168 733.31 336.448 731.894 335.416L730.574 338.344C732.062 339.496 734.75 340.288 737.414 340.288ZM747.199 340H754.831C760.327 340 764.095 336.688 764.095 331.6C764.095 326.512 760.327 323.2 754.831 323.2H747.199V340ZM751.087 336.808V326.392H754.639C757.975 326.392 760.159 328.384 760.159 331.6C760.159 334.816 757.975 336.808 754.639 336.808H751.087ZM770.273 340H774.161V326.368H779.537V323.2H764.897V326.368H770.273V340ZM778.376 342.4H781.712L789.632 319.792H786.296L778.376 342.4ZM804.819 340.288C809.595 340.288 812.427 337.552 812.427 332.608V323.2H808.587V332.464C808.587 335.656 807.219 336.976 804.843 336.976C802.491 336.976 801.099 335.656 801.099 332.464V323.2H797.211V332.608C797.211 337.552 800.043 340.288 804.819 340.288ZM821.789 340.288C826.589 340.288 828.917 337.888 828.917 335.08C828.917 328.912 819.149 331.048 819.149 327.952C819.149 326.896 820.037 326.032 822.341 326.032C823.829 326.032 825.437 326.464 826.997 327.352L828.197 324.4C826.637 323.416 824.477 322.912 822.365 322.912C817.589 322.912 815.285 325.288 815.285 328.144C815.285 334.384 825.053 332.224 825.053 335.368C825.053 336.4 824.117 337.168 821.813 337.168C819.797 337.168 817.685 336.448 816.269 335.416L814.949 338.344C816.437 339.496 819.125 340.288 821.789 340.288ZM831.574 340H839.206C844.702 340 848.47 336.688 848.47 331.6C848.47 326.512 844.702 323.2 839.206 323.2H831.574V340ZM835.462 336.808V326.392H839.014C842.35 326.392 844.534 328.384 844.534 331.6C844.534 334.816 842.35 336.808 839.014 336.808H835.462ZM859.442 340.288C862.37 340.288 864.794 339.232 866.378 337.288L863.882 334.984C862.754 336.304 861.338 336.976 859.658 336.976C856.514 336.976 854.282 334.768 854.282 331.6C854.282 328.432 856.514 326.224 859.658 326.224C861.338 326.224 862.754 326.896 863.882 328.192L866.378 325.888C864.794 323.968 862.37 322.912 859.466 322.912C854.234 322.912 850.346 326.536 850.346 331.6C850.346 336.664 854.234 340.288 859.442 340.288Z" fill="#FAFAFA"/>
<path d="M1161.84 386.14C1161.22 386.14 1160.64 386.019 1160.11 385.776C1159.58 385.524 1159.15 385.174 1158.82 384.726L1159.85 383.48C1160.4 384.227 1161.04 384.6 1161.8 384.6C1162.82 384.6 1163.33 383.998 1163.33 382.794V377.726H1159.84V376.2H1165.15V382.696C1165.15 383.844 1164.87 384.707 1164.31 385.286C1163.75 385.855 1162.92 386.14 1161.84 386.14ZM1171.91 386.14C1170.56 386.14 1169.5 385.762 1168.75 385.006C1167.99 384.241 1167.61 383.149 1167.61 381.73V376.2H1169.43V381.66C1169.43 383.583 1170.27 384.544 1171.93 384.544C1173.58 384.544 1174.4 383.583 1174.4 381.66V376.2H1176.2V381.73C1176.2 383.149 1175.82 384.241 1175.06 385.006C1174.32 385.762 1173.27 386.14 1171.91 386.14ZM1187.45 376.2V386H1185.96L1180.55 379.364V386H1178.75V376.2H1180.24L1185.65 382.836V376.2H1187.45ZM1197.43 384.474V386H1190.08V376.2H1197.23V377.726H1191.9V380.274H1196.63V381.772H1191.9V384.474H1197.43ZM1209.73 384.46V386H1202.5V384.782L1206.39 381.086C1206.83 380.666 1207.13 380.302 1207.28 379.994C1207.43 379.677 1207.51 379.364 1207.51 379.056C1207.51 378.599 1207.36 378.249 1207.05 378.006C1206.74 377.763 1206.29 377.642 1205.69 377.642C1204.7 377.642 1203.93 377.983 1203.4 378.664L1202.12 377.684C1202.51 377.171 1203.02 376.774 1203.66 376.494C1204.32 376.205 1205.05 376.06 1205.85 376.06C1206.91 376.06 1207.76 376.312 1208.4 376.816C1209.03 377.32 1209.35 378.006 1209.35 378.874C1209.35 379.406 1209.24 379.905 1209.01 380.372C1208.79 380.839 1208.36 381.371 1207.72 381.968L1205.11 384.46H1209.73ZM1214.82 386.14C1214.04 386.14 1213.34 385.944 1212.72 385.552C1212.11 385.151 1211.62 384.572 1211.27 383.816C1210.91 383.051 1210.74 382.145 1210.74 381.1C1210.74 380.055 1210.91 379.154 1211.27 378.398C1211.62 377.633 1212.11 377.054 1212.72 376.662C1213.34 376.261 1214.04 376.06 1214.82 376.06C1215.61 376.06 1216.31 376.261 1216.92 376.662C1217.55 377.054 1218.04 377.633 1218.39 378.398C1218.75 379.154 1218.93 380.055 1218.93 381.1C1218.93 382.145 1218.75 383.051 1218.39 383.816C1218.04 384.572 1217.55 385.151 1216.92 385.552C1216.31 385.944 1215.61 386.14 1214.82 386.14ZM1214.82 384.558C1215.52 384.558 1216.07 384.269 1216.48 383.69C1216.89 383.111 1217.09 382.248 1217.09 381.1C1217.09 379.952 1216.89 379.089 1216.48 378.51C1216.07 377.931 1215.52 377.642 1214.82 377.642C1214.13 377.642 1213.58 377.931 1213.17 378.51C1212.77 379.089 1212.57 379.952 1212.57 381.1C1212.57 382.248 1212.77 383.111 1213.17 383.69C1213.58 384.269 1214.13 384.558 1214.82 384.558ZM1227.18 384.46V386H1219.96V384.782L1223.85 381.086C1224.29 380.666 1224.59 380.302 1224.73 379.994C1224.89 379.677 1224.97 379.364 1224.97 379.056C1224.97 378.599 1224.82 378.249 1224.51 378.006C1224.2 377.763 1223.75 377.642 1223.15 377.642C1222.15 377.642 1221.39 377.983 1220.86 378.664L1219.58 377.684C1219.97 377.171 1220.48 376.774 1221.12 376.494C1221.78 376.205 1222.5 376.06 1223.31 376.06C1224.37 376.06 1225.22 376.312 1225.85 376.816C1226.49 377.32 1226.81 378.006 1226.81 378.874C1226.81 379.406 1226.69 379.905 1226.47 380.372C1226.25 380.839 1225.82 381.371 1225.18 381.968L1222.56 384.46H1227.18ZM1232.41 380.246C1233.31 380.358 1234 380.666 1234.48 381.17C1234.96 381.674 1235.19 382.304 1235.19 383.06C1235.19 383.629 1235.05 384.147 1234.76 384.614C1234.47 385.081 1234.03 385.454 1233.44 385.734C1232.86 386.005 1232.16 386.14 1231.32 386.14C1230.62 386.14 1229.94 386.042 1229.29 385.846C1228.64 385.641 1228.09 385.361 1227.63 385.006L1228.42 383.592C1228.77 383.891 1229.2 384.129 1229.71 384.306C1230.22 384.474 1230.75 384.558 1231.29 384.558C1231.93 384.558 1232.44 384.427 1232.8 384.166C1233.17 383.895 1233.36 383.531 1233.36 383.074C1233.36 382.617 1233.18 382.262 1232.83 382.01C1232.48 381.749 1231.95 381.618 1231.23 381.618H1230.34V380.372L1232.56 377.726H1228.11V376.2H1234.79V377.418L1232.41 380.246Z" fill="#32EEFF"/>
<path d="M1070.01 303.2H1077.64C1079.47 303.2 1081.08 303.552 1082.47 304.256C1083.88 304.944 1084.96 305.92 1085.73 307.184C1086.52 308.448 1086.91 309.92 1086.91 311.6C1086.91 313.28 1086.52 314.752 1085.73 316.016C1084.96 317.28 1083.88 318.264 1082.47 318.968C1081.08 319.656 1079.47 320 1077.64 320H1070.01V303.2ZM1077.45 316.808C1079.13 316.808 1080.47 316.344 1081.46 315.416C1082.47 314.472 1082.97 313.2 1082.97 311.6C1082.97 310 1082.47 308.736 1081.46 307.808C1080.47 306.864 1079.13 306.392 1077.45 306.392H1073.9V316.808H1077.45ZM1102.22 313.592C1102.22 313.64 1102.2 313.976 1102.15 314.6H1092.38C1092.56 315.4 1092.98 316.032 1093.63 316.496C1094.29 316.96 1095.1 317.192 1096.08 317.192C1096.75 317.192 1097.34 317.096 1097.86 316.904C1098.38 316.696 1098.87 316.376 1099.32 315.944L1101.31 318.104C1100.1 319.496 1098.32 320.192 1095.98 320.192C1094.53 320.192 1093.24 319.912 1092.12 319.352C1091 318.776 1090.14 317.984 1089.53 316.976C1088.92 315.968 1088.62 314.824 1088.62 313.544C1088.62 312.28 1088.91 311.144 1089.5 310.136C1090.11 309.112 1090.94 308.32 1091.98 307.76C1093.03 307.184 1094.21 306.896 1095.5 306.896C1096.77 306.896 1097.91 307.168 1098.94 307.712C1099.96 308.256 1100.76 309.04 1101.34 310.064C1101.93 311.072 1102.22 312.248 1102.22 313.592ZM1095.53 309.728C1094.68 309.728 1093.97 309.968 1093.39 310.448C1092.82 310.928 1092.46 311.584 1092.34 312.416H1098.7C1098.57 311.6 1098.22 310.952 1097.64 310.472C1097.06 309.976 1096.36 309.728 1095.53 309.728ZM1117.3 307.088L1111.85 320H1107.99L1102.56 307.088H1106.43L1110 315.872L1113.7 307.088H1117.3ZM1131.12 313.592C1131.12 313.64 1131.1 313.976 1131.05 314.6H1121.28C1121.46 315.4 1121.87 316.032 1122.53 316.496C1123.19 316.96 1124 317.192 1124.98 317.192C1125.65 317.192 1126.24 317.096 1126.75 316.904C1127.28 316.696 1127.77 316.376 1128.22 315.944L1130.21 318.104C1128.99 319.496 1127.22 320.192 1124.88 320.192C1123.43 320.192 1122.14 319.912 1121.02 319.352C1119.9 318.776 1119.03 317.984 1118.43 316.976C1117.82 315.968 1117.51 314.824 1117.51 313.544C1117.51 312.28 1117.81 311.144 1118.4 310.136C1119.01 309.112 1119.83 308.32 1120.87 307.76C1121.93 307.184 1123.11 306.896 1124.4 306.896C1125.67 306.896 1126.81 307.168 1127.83 307.712C1128.86 308.256 1129.66 309.04 1130.23 310.064C1130.83 311.072 1131.12 312.248 1131.12 313.592ZM1124.43 309.728C1123.58 309.728 1122.87 309.968 1122.29 310.448C1121.71 310.928 1121.36 311.584 1121.23 312.416H1127.59C1127.47 311.6 1127.11 310.952 1126.54 310.472C1125.96 309.976 1125.26 309.728 1124.43 309.728ZM1133.61 302.192H1137.36V320H1133.61V302.192ZM1146.98 320.192C1145.62 320.192 1144.39 319.912 1143.31 319.352C1142.23 318.776 1141.39 317.984 1140.79 316.976C1140.18 315.968 1139.87 314.824 1139.87 313.544C1139.87 312.264 1140.18 311.12 1140.79 310.112C1141.39 309.104 1142.23 308.32 1143.31 307.76C1144.39 307.184 1145.62 306.896 1146.98 306.896C1148.34 306.896 1149.55 307.184 1150.63 307.76C1151.7 308.32 1152.54 309.104 1153.15 310.112C1153.75 311.12 1154.06 312.264 1154.06 313.544C1154.06 314.824 1153.75 315.968 1153.15 316.976C1152.54 317.984 1151.7 318.776 1150.63 319.352C1149.55 319.912 1148.34 320.192 1146.98 320.192ZM1146.98 317.12C1147.94 317.12 1148.72 316.8 1149.33 316.16C1149.95 315.504 1150.27 314.632 1150.27 313.544C1150.27 312.456 1149.95 311.592 1149.33 310.952C1148.72 310.296 1147.94 309.968 1146.98 309.968C1146.02 309.968 1145.23 310.296 1144.6 310.952C1143.98 311.592 1143.67 312.456 1143.67 313.544C1143.67 314.632 1143.98 315.504 1144.6 316.16C1145.23 316.8 1146.02 317.12 1146.98 317.12ZM1164.19 306.896C1165.39 306.896 1166.48 307.176 1167.46 307.736C1168.45 308.28 1169.22 309.056 1169.78 310.064C1170.34 311.056 1170.62 312.216 1170.62 313.544C1170.62 314.872 1170.34 316.04 1169.78 317.048C1169.22 318.04 1168.45 318.816 1167.46 319.376C1166.48 319.92 1165.39 320.192 1164.19 320.192C1162.54 320.192 1161.25 319.672 1160.3 318.632V324.656H1156.56V307.088H1160.14V308.576C1161.06 307.456 1162.42 306.896 1164.19 306.896ZM1163.54 317.12C1164.5 317.12 1165.29 316.8 1165.9 316.16C1166.52 315.504 1166.83 314.632 1166.83 313.544C1166.83 312.456 1166.52 311.592 1165.9 310.952C1165.29 310.296 1164.5 309.968 1163.54 309.968C1162.58 309.968 1161.79 310.296 1161.17 310.952C1160.56 311.592 1160.26 312.456 1160.26 313.544C1160.26 314.632 1160.56 315.504 1161.17 316.16C1161.79 316.8 1162.58 317.12 1163.54 317.12ZM1173.13 307.088H1176.87V320H1173.13V307.088ZM1175 305.288C1174.31 305.288 1173.75 305.088 1173.32 304.688C1172.89 304.288 1172.67 303.792 1172.67 303.2C1172.67 302.608 1172.89 302.112 1173.32 301.712C1173.75 301.312 1174.31 301.112 1175 301.112C1175.69 301.112 1176.25 301.304 1176.68 301.688C1177.11 302.072 1177.33 302.552 1177.33 303.128C1177.33 303.752 1177.11 304.272 1176.68 304.688C1176.25 305.088 1175.69 305.288 1175 305.288ZM1188.2 306.896C1189.8 306.896 1191.09 307.376 1192.06 308.336C1193.05 309.296 1193.55 310.72 1193.55 312.608V320H1189.81V313.184C1189.81 312.16 1189.58 311.4 1189.13 310.904C1188.69 310.392 1188.04 310.136 1187.19 310.136C1186.25 310.136 1185.49 310.432 1184.93 311.024C1184.37 311.6 1184.09 312.464 1184.09 313.616V320H1180.35V307.088H1183.93V308.6C1184.42 308.056 1185.04 307.64 1185.77 307.352C1186.51 307.048 1187.32 306.896 1188.2 306.896ZM1210.4 307.088V317.84C1210.4 320.208 1209.79 321.968 1208.56 323.12C1207.32 324.272 1205.52 324.848 1203.16 324.848C1201.91 324.848 1200.72 324.696 1199.6 324.392C1198.48 324.088 1197.56 323.648 1196.82 323.072L1198.31 320.384C1198.85 320.832 1199.54 321.184 1200.37 321.44C1201.2 321.712 1202.04 321.848 1202.87 321.848C1204.16 321.848 1205.12 321.552 1205.72 320.96C1206.35 320.384 1206.66 319.504 1206.66 318.32V317.768C1205.68 318.84 1204.32 319.376 1202.58 319.376C1201.4 319.376 1200.31 319.12 1199.32 318.608C1198.34 318.08 1197.56 317.344 1196.99 316.4C1196.41 315.456 1196.12 314.368 1196.12 313.136C1196.12 311.904 1196.41 310.816 1196.99 309.872C1197.56 308.928 1198.34 308.2 1199.32 307.688C1200.31 307.16 1201.4 306.896 1202.58 306.896C1204.45 306.896 1205.88 307.512 1206.85 308.744V307.088H1210.4ZM1203.32 316.304C1204.32 316.304 1205.12 316.016 1205.75 315.44C1206.39 314.848 1206.71 314.08 1206.71 313.136C1206.71 312.192 1206.39 311.432 1205.75 310.856C1205.12 310.264 1204.32 309.968 1203.32 309.968C1202.33 309.968 1201.52 310.264 1200.88 310.856C1200.24 311.432 1199.92 312.192 1199.92 313.136C1199.92 314.08 1200.24 314.848 1200.88 315.44C1201.52 316.016 1202.33 316.304 1203.32 316.304ZM1231.65 320L1228.41 315.32H1228.22H1224.84V320H1220.95V303.2H1228.22C1229.71 303.2 1231 303.448 1232.09 303.944C1233.19 304.44 1234.04 305.144 1234.63 306.056C1235.22 306.968 1235.52 308.048 1235.52 309.296C1235.52 310.544 1235.21 311.624 1234.61 312.536C1234.01 313.432 1233.17 314.12 1232.06 314.6L1235.83 320H1231.65ZM1231.58 309.296C1231.58 308.352 1231.28 307.632 1230.67 307.136C1230.06 306.624 1229.17 306.368 1228.01 306.368H1224.84V312.224H1228.01C1229.17 312.224 1230.06 311.968 1230.67 311.456C1231.28 310.944 1231.58 310.224 1231.58 309.296ZM1250.98 313.592C1250.98 313.64 1250.96 313.976 1250.91 314.6H1241.14C1241.32 315.4 1241.73 316.032 1242.39 316.496C1243.05 316.96 1243.86 317.192 1244.84 317.192C1245.51 317.192 1246.1 317.096 1246.61 316.904C1247.14 316.696 1247.63 316.376 1248.08 315.944L1250.07 318.104C1248.85 319.496 1247.08 320.192 1244.74 320.192C1243.29 320.192 1242 319.912 1240.88 319.352C1239.76 318.776 1238.89 317.984 1238.29 316.976C1237.68 315.968 1237.37 314.824 1237.37 313.544C1237.37 312.28 1237.67 311.144 1238.26 310.136C1238.87 309.112 1239.69 308.32 1240.73 307.76C1241.79 307.184 1242.97 306.896 1244.26 306.896C1245.53 306.896 1246.67 307.168 1247.69 307.712C1248.72 308.256 1249.52 309.04 1250.09 310.064C1250.69 311.072 1250.98 312.248 1250.98 313.592ZM1244.29 309.728C1243.44 309.728 1242.73 309.968 1242.15 310.448C1241.57 310.928 1241.22 311.584 1241.09 312.416H1247.45C1247.33 311.6 1246.97 310.952 1246.4 310.472C1245.82 309.976 1245.12 309.728 1244.29 309.728ZM1257.82 320.192C1256.75 320.192 1255.7 320.064 1254.67 319.808C1253.65 319.536 1252.83 319.2 1252.23 318.8L1253.47 316.112C1254.05 316.48 1254.75 316.784 1255.56 317.024C1256.38 317.248 1257.18 317.36 1257.96 317.36C1259.55 317.36 1260.34 316.968 1260.34 316.184C1260.34 315.816 1260.12 315.552 1259.69 315.392C1259.26 315.232 1258.59 315.096 1257.7 314.984C1256.64 314.824 1255.77 314.64 1255.08 314.432C1254.39 314.224 1253.79 313.856 1253.28 313.328C1252.79 312.8 1252.54 312.048 1252.54 311.072C1252.54 310.256 1252.77 309.536 1253.23 308.912C1253.71 308.272 1254.4 307.776 1255.3 307.424C1256.21 307.072 1257.28 306.896 1258.51 306.896C1259.43 306.896 1260.33 307 1261.23 307.208C1262.14 307.4 1262.89 307.672 1263.48 308.024L1262.23 310.688C1261.1 310.048 1259.86 309.728 1258.51 309.728C1257.71 309.728 1257.11 309.84 1256.71 310.064C1256.31 310.288 1256.11 310.576 1256.11 310.928C1256.11 311.328 1256.33 311.608 1256.76 311.768C1257.19 311.928 1257.88 312.08 1258.83 312.224C1259.88 312.4 1260.75 312.592 1261.42 312.8C1262.09 312.992 1262.67 313.352 1263.17 313.88C1263.67 314.408 1263.91 315.144 1263.91 316.088C1263.91 316.888 1263.67 317.6 1263.19 318.224C1262.71 318.848 1262.01 319.336 1261.08 319.688C1260.17 320.024 1259.08 320.192 1257.82 320.192ZM1274.55 319.376C1274.18 319.648 1273.73 319.856 1273.18 320C1272.66 320.128 1272.1 320.192 1271.5 320.192C1269.97 320.192 1268.78 319.8 1267.93 319.016C1267.1 318.232 1266.68 317.08 1266.68 315.56V310.256H1264.69V307.376H1266.68V304.232H1270.42V307.376H1273.64V310.256H1270.42V315.512C1270.42 316.056 1270.56 316.48 1270.83 316.784C1271.12 317.072 1271.52 317.216 1272.03 317.216C1272.62 317.216 1273.13 317.056 1273.54 316.736L1274.55 319.376ZM1275.94 311.744H1282.73V314.744H1275.94V311.744ZM1296.44 316.4H1288.64L1287.15 320H1283.17L1290.66 303.2H1294.5L1302.01 320H1297.93L1296.44 316.4ZM1295.22 313.448L1292.55 307.016L1289.89 313.448H1295.22ZM1311.03 303.2C1312.51 303.2 1313.8 303.448 1314.89 303.944C1315.99 304.44 1316.84 305.144 1317.43 306.056C1318.03 306.968 1318.32 308.048 1318.32 309.296C1318.32 310.528 1318.03 311.608 1317.43 312.536C1316.84 313.448 1315.99 314.152 1314.89 314.648C1313.8 315.128 1312.51 315.368 1311.03 315.368H1307.64V320H1303.75V303.2H1311.03ZM1310.81 312.2C1311.98 312.2 1312.87 311.952 1313.47 311.456C1314.08 310.944 1314.39 310.224 1314.39 309.296C1314.39 308.352 1314.08 307.632 1313.47 307.136C1312.87 306.624 1311.98 306.368 1310.81 306.368H1307.64V312.2H1310.81ZM1321.1 303.2H1324.99V320H1321.1V303.2ZM1101.09 338.376H1104.4V341.256H1101.18V351H1097.44V341.256H1095.45V338.376H1097.44V337.8C1097.44 336.328 1097.87 335.16 1098.73 334.296C1099.61 333.432 1100.85 333 1102.43 333C1102.99 333 1103.52 333.064 1104.01 333.192C1104.53 333.304 1104.95 333.472 1105.29 333.696L1104.3 336.408C1103.87 336.104 1103.37 335.952 1102.79 335.952C1101.65 335.952 1101.09 336.576 1101.09 337.824V338.376ZM1112.24 351.192C1110.88 351.192 1109.66 350.912 1108.57 350.352C1107.5 349.776 1106.66 348.984 1106.05 347.976C1105.44 346.968 1105.14 345.824 1105.14 344.544C1105.14 343.264 1105.44 342.12 1106.05 341.112C1106.66 340.104 1107.5 339.32 1108.57 338.76C1109.66 338.184 1110.88 337.896 1112.24 337.896C1113.6 337.896 1114.82 338.184 1115.89 338.76C1116.96 339.32 1117.8 340.104 1118.41 341.112C1119.02 342.12 1119.32 343.264 1119.32 344.544C1119.32 345.824 1119.02 346.968 1118.41 347.976C1117.8 348.984 1116.96 349.776 1115.89 350.352C1114.82 350.912 1113.6 351.192 1112.24 351.192ZM1112.24 348.12C1113.2 348.12 1113.99 347.8 1114.6 347.16C1115.22 346.504 1115.53 345.632 1115.53 344.544C1115.53 343.456 1115.22 342.592 1114.6 341.952C1113.99 341.296 1113.2 340.968 1112.24 340.968C1111.28 340.968 1110.49 341.296 1109.87 341.952C1109.24 342.592 1108.93 343.456 1108.93 344.544C1108.93 345.632 1109.24 346.504 1109.87 347.16C1110.49 347.8 1111.28 348.12 1112.24 348.12ZM1125.4 339.792C1125.85 339.168 1126.45 338.696 1127.2 338.376C1127.97 338.056 1128.85 337.896 1129.84 337.896V341.352C1129.43 341.32 1129.15 341.304 1129 341.304C1127.93 341.304 1127.09 341.608 1126.48 342.216C1125.87 342.808 1125.57 343.704 1125.57 344.904V351H1121.83V338.088H1125.4V339.792ZM1151.61 344.592C1151.61 344.64 1151.58 344.976 1151.53 345.6H1141.77C1141.94 346.4 1142.36 347.032 1143.01 347.496C1143.67 347.96 1144.49 348.192 1145.46 348.192C1146.13 348.192 1146.73 348.096 1147.24 347.904C1147.77 347.696 1148.25 347.376 1148.7 346.944L1150.69 349.104C1149.48 350.496 1147.7 351.192 1145.37 351.192C1143.91 351.192 1142.62 350.912 1141.5 350.352C1140.38 349.776 1139.52 348.984 1138.91 347.976C1138.3 346.968 1138 345.824 1138 344.544C1138 343.28 1138.29 342.144 1138.89 341.136C1139.49 340.112 1140.32 339.32 1141.36 338.76C1142.41 338.184 1143.59 337.896 1144.89 337.896C1146.15 337.896 1147.29 338.168 1148.32 338.712C1149.34 339.256 1150.14 340.04 1150.72 341.064C1151.31 342.072 1151.61 343.248 1151.61 344.592ZM1144.91 340.728C1144.06 340.728 1143.35 340.968 1142.77 341.448C1142.2 341.928 1141.85 342.584 1141.72 343.416H1148.08C1147.95 342.6 1147.6 341.952 1147.02 341.472C1146.45 340.976 1145.74 340.728 1144.91 340.728ZM1153.85 342.744H1160.65V345.744H1153.85V342.744ZM1171.99 351.288C1170.28 351.288 1168.73 350.92 1167.33 350.184C1165.96 349.432 1164.87 348.4 1164.07 347.088C1163.29 345.76 1162.89 344.264 1162.89 342.6C1162.89 340.936 1163.29 339.448 1164.07 338.136C1164.87 336.808 1165.96 335.776 1167.33 335.04C1168.73 334.288 1170.29 333.912 1172.01 333.912C1173.47 333.912 1174.78 334.168 1175.95 334.68C1177.13 335.192 1178.13 335.928 1178.93 336.888L1176.43 339.192C1175.29 337.88 1173.89 337.224 1172.21 337.224C1171.17 337.224 1170.24 337.456 1169.42 337.92C1168.61 338.368 1167.97 339 1167.5 339.816C1167.05 340.632 1166.83 341.56 1166.83 342.6C1166.83 343.64 1167.05 344.568 1167.5 345.384C1167.97 346.2 1168.61 346.84 1169.42 347.304C1170.24 347.752 1171.17 347.976 1172.21 347.976C1173.89 347.976 1175.29 347.312 1176.43 345.984L1178.93 348.288C1178.13 349.264 1177.13 350.008 1175.95 350.52C1174.77 351.032 1173.45 351.288 1171.99 351.288ZM1186.99 351.192C1185.63 351.192 1184.4 350.912 1183.31 350.352C1182.24 349.776 1181.4 348.984 1180.79 347.976C1180.19 346.968 1179.88 345.824 1179.88 344.544C1179.88 343.264 1180.19 342.12 1180.79 341.112C1181.4 340.104 1182.24 339.32 1183.31 338.76C1184.4 338.184 1185.63 337.896 1186.99 337.896C1188.35 337.896 1189.56 338.184 1190.63 338.76C1191.71 339.32 1192.55 340.104 1193.15 341.112C1193.76 342.12 1194.07 343.264 1194.07 344.544C1194.07 345.824 1193.76 346.968 1193.15 347.976C1192.55 348.984 1191.71 349.776 1190.63 350.352C1189.56 350.912 1188.35 351.192 1186.99 351.192ZM1186.99 348.12C1187.95 348.12 1188.73 347.8 1189.34 347.16C1189.96 346.504 1190.27 345.632 1190.27 344.544C1190.27 343.456 1189.96 342.592 1189.34 341.952C1188.73 341.296 1187.95 340.968 1186.99 340.968C1186.03 340.968 1185.23 341.296 1184.61 341.952C1183.99 342.592 1183.67 343.456 1183.67 344.544C1183.67 345.632 1183.99 346.504 1184.61 347.16C1185.23 347.8 1186.03 348.12 1186.99 348.12ZM1213.1 337.896C1214.72 337.896 1216 338.376 1216.94 339.336C1217.9 340.28 1218.38 341.704 1218.38 343.608V351H1214.64V344.184C1214.64 343.16 1214.42 342.4 1213.99 341.904C1213.58 341.392 1212.98 341.136 1212.19 341.136C1211.31 341.136 1210.62 341.424 1210.1 342C1209.59 342.56 1209.34 343.4 1209.34 344.52V351H1205.59V344.184C1205.59 342.152 1204.78 341.136 1203.14 341.136C1202.28 341.136 1201.59 341.424 1201.08 342C1200.57 342.56 1200.31 343.4 1200.31 344.52V351H1196.57V338.088H1200.14V339.576C1200.62 339.032 1201.21 338.616 1201.9 338.328C1202.6 338.04 1203.37 337.896 1204.2 337.896C1205.11 337.896 1205.94 338.08 1206.67 338.448C1207.41 338.8 1208 339.32 1208.45 340.008C1208.98 339.336 1209.64 338.816 1210.44 338.448C1211.26 338.08 1212.14 337.896 1213.1 337.896ZM1238.28 337.896C1239.89 337.896 1241.17 338.376 1242.12 339.336C1243.08 340.28 1243.56 341.704 1243.56 343.608V351H1239.81V344.184C1239.81 343.16 1239.6 342.4 1239.16 341.904C1238.75 341.392 1238.15 341.136 1237.36 341.136C1236.48 341.136 1235.79 341.424 1235.28 342C1234.76 342.56 1234.51 343.4 1234.51 344.52V351H1230.76V344.184C1230.76 342.152 1229.95 341.136 1228.32 341.136C1227.45 341.136 1226.76 341.424 1226.25 342C1225.74 342.56 1225.48 343.4 1225.48 344.52V351H1221.74V338.088H1225.32V339.576C1225.8 339.032 1226.38 338.616 1227.07 338.328C1227.77 338.04 1228.54 337.896 1229.37 337.896C1230.28 337.896 1231.11 338.08 1231.84 338.448C1232.58 338.8 1233.17 339.32 1233.62 340.008C1234.15 339.336 1234.81 338.816 1235.61 338.448C1236.43 338.08 1237.32 337.896 1238.28 337.896ZM1259.7 344.592C1259.7 344.64 1259.68 344.976 1259.63 345.6H1249.86C1250.04 346.4 1250.45 347.032 1251.11 347.496C1251.76 347.96 1252.58 348.192 1253.56 348.192C1254.23 348.192 1254.82 348.096 1255.33 347.904C1255.86 347.696 1256.35 347.376 1256.8 346.944L1258.79 349.104C1257.57 350.496 1255.8 351.192 1253.46 351.192C1252 351.192 1250.72 350.912 1249.6 350.352C1248.48 349.776 1247.61 348.984 1247 347.976C1246.4 346.968 1246.09 345.824 1246.09 344.544C1246.09 343.28 1246.39 342.144 1246.98 341.136C1247.59 340.112 1248.41 339.32 1249.45 338.76C1250.51 338.184 1251.68 337.896 1252.98 337.896C1254.24 337.896 1255.39 338.168 1256.41 338.712C1257.44 339.256 1258.24 340.04 1258.81 341.064C1259.4 342.072 1259.7 343.248 1259.7 344.592ZM1253 340.728C1252.16 340.728 1251.44 340.968 1250.87 341.448C1250.29 341.928 1249.94 342.584 1249.81 343.416H1256.17C1256.04 342.6 1255.69 341.952 1255.12 341.472C1254.54 340.976 1253.84 340.728 1253 340.728ZM1265.77 339.792C1266.22 339.168 1266.82 338.696 1267.57 338.376C1268.34 338.056 1269.22 337.896 1270.21 337.896V341.352C1269.79 341.32 1269.51 341.304 1269.37 341.304C1268.3 341.304 1267.46 341.608 1266.85 342.216C1266.24 342.808 1265.94 343.704 1265.94 344.904V351H1262.19V338.088H1265.77V339.792ZM1278.56 351.192C1277.18 351.192 1275.94 350.912 1274.84 350.352C1273.75 349.776 1272.89 348.984 1272.27 347.976C1271.66 346.968 1271.36 345.824 1271.36 344.544C1271.36 343.264 1271.66 342.12 1272.27 341.112C1272.89 340.104 1273.75 339.32 1274.84 338.76C1275.94 338.184 1277.18 337.896 1278.56 337.896C1279.92 337.896 1281.1 338.184 1282.11 338.76C1283.13 339.32 1283.88 340.128 1284.34 341.184L1281.44 342.744C1280.77 341.56 1279.8 340.968 1278.53 340.968C1277.56 340.968 1276.75 341.288 1276.11 341.928C1275.47 342.568 1275.15 343.44 1275.15 344.544C1275.15 345.648 1275.47 346.52 1276.11 347.16C1276.75 347.8 1277.56 348.12 1278.53 348.12C1279.81 348.12 1280.78 347.528 1281.44 346.344L1284.34 347.928C1283.88 348.952 1283.13 349.752 1282.11 350.328C1281.1 350.904 1279.92 351.192 1278.56 351.192ZM1298.98 344.592C1298.98 344.64 1298.96 344.976 1298.91 345.6H1289.14C1289.32 346.4 1289.73 347.032 1290.39 347.496C1291.05 347.96 1291.86 348.192 1292.84 348.192C1293.51 348.192 1294.1 348.096 1294.61 347.904C1295.14 347.696 1295.63 347.376 1296.08 346.944L1298.07 349.104C1296.85 350.496 1295.08 351.192 1292.74 351.192C1291.29 351.192 1290 350.912 1288.88 350.352C1287.76 349.776 1286.89 348.984 1286.29 347.976C1285.68 346.968 1285.37 345.824 1285.37 344.544C1285.37 343.28 1285.67 342.144 1286.26 341.136C1286.87 340.112 1287.69 339.32 1288.73 338.76C1289.79 338.184 1290.97 337.896 1292.26 337.896C1293.53 337.896 1294.67 338.168 1295.69 338.712C1296.72 339.256 1297.52 340.04 1298.09 341.064C1298.69 342.072 1298.98 343.248 1298.98 344.592ZM1292.29 340.728C1291.44 340.728 1290.73 340.968 1290.15 341.448C1289.57 341.928 1289.22 342.584 1289.09 343.416H1295.45C1295.33 342.6 1294.97 341.952 1294.4 341.472C1293.82 340.976 1293.12 340.728 1292.29 340.728Z" fill="#FAFAFA"/>
<path d="M545.106 95.776C545.638 96.028 546.212 96.14 546.842 96.14C547.92 96.14 548.746 95.86 549.306 95.286C549.866 94.712 550.146 93.844 550.146 92.696V86.2H544.84V87.726H548.326V92.794C548.326 93.998 547.808 94.6 546.8 94.6C546.044 94.6 545.386 94.236 544.854 93.48L543.818 94.726C544.154 95.174 544.574 95.524 545.106 95.776ZM553.749 95.006C554.505 95.762 555.555 96.14 556.913 96.14C558.257 96.14 559.307 95.762 560.063 95.006C560.819 94.25 561.197 93.158 561.197 91.73V86.2H559.405V91.66C559.405 93.592 558.579 94.544 556.927 94.544C555.261 94.544 554.435 93.592 554.435 91.66V86.2H552.615V91.73C552.615 93.158 552.993 94.25 553.749 95.006ZM572.454 86.2H570.648V92.836L565.244 86.2H563.746V96H565.552V89.364L570.956 96H572.454V86.2ZM582.43 94.474H576.9V91.772H581.632V90.274H576.9V87.726H582.234V86.2H575.08V96H582.43V94.474ZM594.726 94.46H590.106L592.724 91.968C593.354 91.38 593.788 90.848 594.012 90.372C594.236 89.91 594.348 89.406 594.348 88.874C594.348 88.006 594.026 87.32 593.396 86.816C592.752 86.312 591.912 86.06 590.848 86.06C590.036 86.06 589.308 86.214 588.664 86.494C588.02 86.774 587.502 87.18 587.124 87.684L588.398 88.664C588.93 87.992 589.686 87.642 590.694 87.642C591.282 87.642 591.744 87.768 592.052 88.006C592.36 88.258 592.514 88.608 592.514 89.056C592.514 89.364 592.43 89.686 592.276 89.994C592.122 90.302 591.828 90.666 591.394 91.086L587.502 94.782V96H594.726V94.46ZM597.723 95.552C598.339 95.944 599.039 96.14 599.823 96.14C600.607 96.14 601.307 95.944 601.923 95.552C602.539 95.16 603.029 94.572 603.393 93.816C603.743 93.06 603.925 92.15 603.925 91.1C603.925 90.064 603.743 89.154 603.393 88.398C603.029 87.642 602.539 87.054 601.923 86.662C601.307 86.27 600.607 86.06 599.823 86.06C599.039 86.06 598.339 86.27 597.723 86.662C597.107 87.054 596.617 87.642 596.267 88.398C595.903 89.154 595.735 90.064 595.735 91.1C595.735 92.15 595.903 93.06 596.267 93.816C596.617 94.572 597.107 95.16 597.723 95.552ZM601.475 93.69C601.069 94.278 600.523 94.558 599.823 94.558C599.123 94.558 598.577 94.278 598.171 93.69C597.765 93.116 597.569 92.248 597.569 91.1C597.569 89.952 597.765 89.098 598.171 88.51C598.577 87.936 599.123 87.642 599.823 87.642C600.523 87.642 601.069 87.936 601.475 88.51C601.881 89.098 602.091 89.952 602.091 91.1C602.091 92.248 601.881 93.116 601.475 93.69ZM612.185 94.46H607.565L610.183 91.968C610.813 91.38 611.247 90.848 611.471 90.372C611.695 89.91 611.807 89.406 611.807 88.874C611.807 88.006 611.485 87.32 610.855 86.816C610.211 86.312 609.371 86.06 608.307 86.06C607.495 86.06 606.767 86.214 606.123 86.494C605.479 86.774 604.961 87.18 604.583 87.684L605.857 88.664C606.389 87.992 607.145 87.642 608.153 87.642C608.741 87.642 609.203 87.768 609.511 88.006C609.819 88.258 609.973 88.608 609.973 89.056C609.973 89.364 609.889 89.686 609.735 89.994C609.581 90.302 609.287 90.666 608.853 91.086L604.961 94.782V96H612.185V94.46ZM616.623 86.2H612.731V87.726H614.803V96H616.623V86.2Z" fill="#32EEFF"/>
<path d="M480.16 7.2H487.792C489.616 7.2 491.224 7.552 492.616 8.256C494.024 8.944 495.112 9.92 495.88 11.184C496.664 12.448 497.056 13.92 497.056 15.6C497.056 17.28 496.664 18.752 495.88 20.016C495.112 21.28 494.024 22.264 492.616 22.968C491.224 23.656 489.616 24 487.792 24H480.16V7.2ZM487.6 20.808C489.28 20.808 490.616 20.344 491.608 19.416C492.616 18.472 493.12 17.2 493.12 15.6C493.12 14 492.616 12.736 491.608 11.808C490.616 10.864 489.28 10.392 487.6 10.392H484.048V20.808H487.6ZM512.372 17.592C512.372 17.64 512.348 17.976 512.3 18.6H502.532C502.708 19.4 503.124 20.032 503.78 20.496C504.436 20.96 505.252 21.192 506.228 21.192C506.9 21.192 507.492 21.096 508.004 20.904C508.532 20.696 509.02 20.376 509.468 19.944L511.46 22.104C510.244 23.496 508.468 24.192 506.132 24.192C504.676 24.192 503.388 23.912 502.268 23.352C501.148 22.776 500.284 21.984 499.676 20.976C499.068 19.968 498.764 18.824 498.764 17.544C498.764 16.28 499.06 15.144 499.652 14.136C500.26 13.112 501.084 12.32 502.124 11.76C503.18 11.184 504.356 10.896 505.652 10.896C506.916 10.896 508.06 11.168 509.084 11.712C510.108 12.256 510.908 13.04 511.484 14.064C512.076 15.072 512.372 16.248 512.372 17.592ZM505.676 13.728C504.828 13.728 504.116 13.968 503.54 14.448C502.964 14.928 502.612 15.584 502.484 16.416H508.844C508.716 15.6 508.364 14.952 507.788 14.472C507.212 13.976 506.508 13.728 505.676 13.728ZM527.446 11.088L521.998 24H518.134L512.71 11.088H516.574L520.15 19.872L523.846 11.088H527.446ZM541.271 17.592C541.271 17.64 541.247 17.976 541.199 18.6H531.431C531.607 19.4 532.023 20.032 532.679 20.496C533.335 20.96 534.151 21.192 535.127 21.192C535.799 21.192 536.391 21.096 536.903 20.904C537.431 20.696 537.919 20.376 538.367 19.944L540.359 22.104C539.143 23.496 537.367 24.192 535.031 24.192C533.575 24.192 532.287 23.912 531.167 23.352C530.047 22.776 529.183 21.984 528.575 20.976C527.967 19.968 527.663 18.824 527.663 17.544C527.663 16.28 527.959 15.144 528.551 14.136C529.159 13.112 529.983 12.32 531.023 11.76C532.079 11.184 533.255 10.896 534.551 10.896C535.815 10.896 536.959 11.168 537.983 11.712C539.007 12.256 539.807 13.04 540.383 14.064C540.975 15.072 541.271 16.248 541.271 17.592ZM534.575 13.728C533.727 13.728 533.015 13.968 532.439 14.448C531.863 14.928 531.511 15.584 531.383 16.416H537.743C537.615 15.6 537.263 14.952 536.687 14.472C536.111 13.976 535.407 13.728 534.575 13.728ZM543.763 6.192H547.507V24H543.763V6.192ZM557.126 24.192C555.766 24.192 554.542 23.912 553.454 23.352C552.382 22.776 551.542 21.984 550.934 20.976C550.326 19.968 550.022 18.824 550.022 17.544C550.022 16.264 550.326 15.12 550.934 14.112C551.542 13.104 552.382 12.32 553.454 11.76C554.542 11.184 555.766 10.896 557.126 10.896C558.486 10.896 559.702 11.184 560.774 11.76C561.846 12.32 562.686 13.104 563.294 14.112C563.902 15.12 564.206 16.264 564.206 17.544C564.206 18.824 563.902 19.968 563.294 20.976C562.686 21.984 561.846 22.776 560.774 23.352C559.702 23.912 558.486 24.192 557.126 24.192ZM557.126 21.12C558.086 21.12 558.87 20.8 559.478 20.16C560.102 19.504 560.414 18.632 560.414 17.544C560.414 16.456 560.102 15.592 559.478 14.952C558.87 14.296 558.086 13.968 557.126 13.968C556.166 13.968 555.374 14.296 554.75 14.952C554.126 15.592 553.814 16.456 553.814 17.544C553.814 18.632 554.126 19.504 554.75 20.16C555.374 20.8 556.166 21.12 557.126 21.12ZM574.34 10.896C575.54 10.896 576.628 11.176 577.604 11.736C578.596 12.28 579.372 13.056 579.932 14.064C580.492 15.056 580.772 16.216 580.772 17.544C580.772 18.872 580.492 20.04 579.932 21.048C579.372 22.04 578.596 22.816 577.604 23.376C576.628 23.92 575.54 24.192 574.34 24.192C572.692 24.192 571.396 23.672 570.452 22.632V28.656H566.708V11.088H570.284V12.576C571.212 11.456 572.564 10.896 574.34 10.896ZM573.692 21.12C574.652 21.12 575.436 20.8 576.044 20.16C576.668 19.504 576.98 18.632 576.98 17.544C576.98 16.456 576.668 15.592 576.044 14.952C575.436 14.296 574.652 13.968 573.692 13.968C572.732 13.968 571.94 14.296 571.316 14.952C570.708 15.592 570.404 16.456 570.404 17.544C570.404 18.632 570.708 19.504 571.316 20.16C571.94 20.8 572.732 21.12 573.692 21.12ZM599.815 10.896C601.431 10.896 602.711 11.376 603.655 12.336C604.615 13.28 605.095 14.704 605.095 16.608V24H601.351V17.184C601.351 16.16 601.135 15.4 600.703 14.904C600.287 14.392 599.687 14.136 598.903 14.136C598.023 14.136 597.327 14.424 596.815 15C596.303 15.56 596.047 16.4 596.047 17.52V24H592.303V17.184C592.303 15.152 591.487 14.136 589.855 14.136C588.991 14.136 588.303 14.424 587.791 15C587.279 15.56 587.023 16.4 587.023 17.52V24H583.279V11.088H586.855V12.576C587.335 12.032 587.919 11.616 588.607 11.328C589.311 11.04 590.079 10.896 590.911 10.896C591.823 10.896 592.647 11.08 593.383 11.448C594.119 11.8 594.711 12.32 595.159 13.008C595.687 12.336 596.351 11.816 597.151 11.448C597.967 11.08 598.855 10.896 599.815 10.896ZM621.239 17.592C621.239 17.64 621.215 17.976 621.167 18.6H611.399C611.575 19.4 611.991 20.032 612.647 20.496C613.303 20.96 614.119 21.192 615.095 21.192C615.767 21.192 616.359 21.096 616.871 20.904C617.399 20.696 617.887 20.376 618.335 19.944L620.327 22.104C619.111 23.496 617.335 24.192 614.999 24.192C613.543 24.192 612.255 23.912 611.135 23.352C610.015 22.776 609.151 21.984 608.543 20.976C607.935 19.968 607.631 18.824 607.631 17.544C607.631 16.28 607.927 15.144 608.519 14.136C609.127 13.112 609.951 12.32 610.991 11.76C612.047 11.184 613.223 10.896 614.519 10.896C615.783 10.896 616.927 11.168 617.951 11.712C618.975 12.256 619.775 13.04 620.351 14.064C620.943 15.072 621.239 16.248 621.239 17.592ZM614.543 13.728C613.695 13.728 612.983 13.968 612.407 14.448C611.831 14.928 611.479 15.584 611.351 16.416H617.711C617.583 15.6 617.231 14.952 616.655 14.472C616.079 13.976 615.375 13.728 614.543 13.728ZM631.58 10.896C633.18 10.896 634.468 11.376 635.444 12.336C636.436 13.296 636.932 14.72 636.932 16.608V24H633.188V17.184C633.188 16.16 632.964 15.4 632.516 14.904C632.068 14.392 631.42 14.136 630.572 14.136C629.628 14.136 628.876 14.432 628.316 15.024C627.756 15.6 627.476 16.464 627.476 17.616V24H623.732V11.088H627.308V12.6C627.804 12.056 628.42 11.64 629.156 11.352C629.892 11.048 630.7 10.896 631.58 10.896ZM648.654 23.376C648.286 23.648 647.83 23.856 647.286 24C646.758 24.128 646.198 24.192 645.606 24.192C644.07 24.192 642.878 23.8 642.03 23.016C641.198 22.232 640.782 21.08 640.782 19.56V14.256H638.79V11.376H640.782V8.232H644.526V11.376H647.742V14.256H644.526V19.512C644.526 20.056 644.662 20.48 644.934 20.784C645.222 21.072 645.622 21.216 646.134 21.216C646.726 21.216 647.23 21.056 647.646 20.736L648.654 23.376ZM663.696 24.192C662.336 24.192 661.112 23.912 660.024 23.352C658.952 22.776 658.112 21.984 657.504 20.976C656.896 19.968 656.592 18.824 656.592 17.544C656.592 16.264 656.896 15.12 657.504 14.112C658.112 13.104 658.952 12.32 660.024 11.76C661.112 11.184 662.336 10.896 663.696 10.896C665.056 10.896 666.272 11.184 667.344 11.76C668.416 12.32 669.256 13.104 669.864 14.112C670.472 15.12 670.776 16.264 670.776 17.544C670.776 18.824 670.472 19.968 669.864 20.976C669.256 21.984 668.416 22.776 667.344 23.352C666.272 23.912 665.056 24.192 663.696 24.192ZM663.696 21.12C664.656 21.12 665.44 20.8 666.048 20.16C666.672 19.504 666.984 18.632 666.984 17.544C666.984 16.456 666.672 15.592 666.048 14.952C665.44 14.296 664.656 13.968 663.696 13.968C662.736 13.968 661.944 14.296 661.32 14.952C660.696 15.592 660.384 16.456 660.384 17.544C660.384 18.632 660.696 19.504 661.32 20.16C661.944 20.8 662.736 21.12 663.696 21.12ZM677.383 11.376H680.695V14.256H677.479V24H673.735V14.256H671.743V11.376H673.735V10.8C673.735 9.328 674.167 8.16 675.031 7.296C675.911 6.432 677.143 6 678.727 6C679.287 6 679.815 6.064 680.311 6.192C680.823 6.304 681.247 6.472 681.583 6.696L680.599 9.408C680.167 9.104 679.663 8.952 679.087 8.952C677.951 8.952 677.383 9.576 677.383 10.824V11.376ZM460.749 55L460.725 44.92L455.781 53.224H454.029L449.109 45.136V55H445.461V38.2H448.677L454.965 48.64L461.157 38.2H464.349L464.397 55H460.749ZM481.391 51.88V55H468.383V38.2H481.079V41.32H472.247V44.968H480.047V47.992H472.247V51.88H481.391ZM487.964 41.368H482.588V38.2H497.228V41.368H491.852V55H487.964V41.368ZM509.54 51.4H501.74L500.252 55H496.268L503.756 38.2H507.596L515.108 55H511.028L509.54 51.4ZM508.316 48.448L505.652 42.016L502.988 48.448H508.316ZM519.488 41.368H514.112V38.2H528.752V41.368H523.376V55H519.488V41.368ZM546.252 38.2V55H542.364V48.112H534.732V55H530.844V38.2H534.732V44.824H542.364V38.2H546.252ZM563.234 51.88V55H550.226V38.2H562.922V41.32H554.09V44.968H561.89V47.992H554.09V51.88H563.234ZM571.848 55.288C570.52 55.288 569.232 55.112 567.984 54.76C566.752 54.392 565.76 53.92 565.008 53.344L566.328 50.416C567.048 50.944 567.904 51.368 568.896 51.688C569.888 52.008 570.88 52.168 571.872 52.168C572.976 52.168 573.792 52.008 574.32 51.688C574.848 51.352 575.112 50.912 575.112 50.368C575.112 49.968 574.952 49.64 574.632 49.384C574.328 49.112 573.928 48.896 573.432 48.736C572.952 48.576 572.296 48.4 571.464 48.208C570.184 47.904 569.136 47.6 568.32 47.296C567.504 46.992 566.8 46.504 566.208 45.832C565.632 45.16 565.344 44.264 565.344 43.144C565.344 42.168 565.608 41.288 566.136 40.504C566.664 39.704 567.456 39.072 568.512 38.608C569.584 38.144 570.888 37.912 572.424 37.912C573.496 37.912 574.544 38.04 575.568 38.296C576.592 38.552 577.488 38.92 578.256 39.4L577.056 42.352C575.504 41.472 573.952 41.032 572.4 41.032C571.312 41.032 570.504 41.208 569.976 41.56C569.464 41.912 569.208 42.376 569.208 42.952C569.208 43.528 569.504 43.96 570.096 44.248C570.704 44.52 571.624 44.792 572.856 45.064C574.136 45.368 575.184 45.672 576 45.976C576.816 46.28 577.512 46.76 578.088 47.416C578.68 48.072 578.976 48.96 578.976 50.08C578.976 51.04 578.704 51.92 578.16 52.72C577.632 53.504 576.832 54.128 575.76 54.592C574.688 55.056 573.384 55.288 571.848 55.288ZM581.633 38.2H585.521V55H581.633V38.2ZM595.028 55.288C593.7 55.288 592.412 55.112 591.164 54.76C589.932 54.392 588.94 53.92 588.188 53.344L589.508 50.416C590.228 50.944 591.084 51.368 592.076 51.688C593.068 52.008 594.06 52.168 595.052 52.168C596.156 52.168 596.972 52.008 597.5 51.688C598.028 51.352 598.292 50.912 598.292 50.368C598.292 49.968 598.132 49.64 597.812 49.384C597.508 49.112 597.108 48.896 596.612 48.736C596.132 48.576 595.476 48.4 594.644 48.208C593.364 47.904 592.316 47.6 591.5 47.296C590.684 46.992 589.98 46.504 589.388 45.832C588.812 45.16 588.524 44.264 588.524 43.144C588.524 42.168 588.788 41.288 589.316 40.504C589.844 39.704 590.636 39.072 591.692 38.608C592.764 38.144 594.068 37.912 595.604 37.912C596.676 37.912 597.724 38.04 598.748 38.296C599.772 38.552 600.668 38.92 601.436 39.4L600.236 42.352C598.684 41.472 597.132 41.032 595.58 41.032C594.492 41.032 593.684 41.208 593.156 41.56C592.644 41.912 592.388 42.376 592.388 42.952C592.388 43.528 592.684 43.96 593.276 44.248C593.884 44.52 594.804 44.792 596.036 45.064C597.316 45.368 598.364 45.672 599.18 45.976C599.996 46.28 600.692 46.76 601.268 47.416C601.86 48.072 602.156 48.96 602.156 50.08C602.156 51.04 601.884 51.92 601.34 52.72C600.812 53.504 600.012 54.128 598.94 54.592C597.868 55.056 596.564 55.288 595.028 55.288ZM618.881 38.2C620.369 38.2 621.657 38.448 622.745 38.944C623.849 39.44 624.697 40.144 625.289 41.056C625.881 41.968 626.177 43.048 626.177 44.296C626.177 45.528 625.881 46.608 625.289 47.536C624.697 48.448 623.849 49.152 622.745 49.648C621.657 50.128 620.369 50.368 618.881 50.368H615.497V55H611.609V38.2H618.881ZM618.665 47.2C619.833 47.2 620.721 46.952 621.329 46.456C621.937 45.944 622.241 45.224 622.241 44.296C622.241 43.352 621.937 42.632 621.329 42.136C620.721 41.624 619.833 41.368 618.665 41.368H615.497V47.2H618.665ZM632.265 43.792C632.713 43.168 633.313 42.696 634.065 42.376C634.833 42.056 635.713 41.896 636.705 41.896V45.352C636.289 45.32 636.009 45.304 635.865 45.304C634.793 45.304 633.953 45.608 633.345 46.216C632.737 46.808 632.433 47.704 632.433 48.904V55H628.689V42.088H632.265V43.792ZM644.958 55.192C643.598 55.192 642.374 54.912 641.286 54.352C640.214 53.776 639.374 52.984 638.766 51.976C638.158 50.968 637.854 49.824 637.854 48.544C637.854 47.264 638.158 46.12 638.766 45.112C639.374 44.104 640.214 43.32 641.286 42.76C642.374 42.184 643.598 41.896 644.958 41.896C646.318 41.896 647.534 42.184 648.606 42.76C649.678 43.32 650.518 44.104 651.126 45.112C651.734 46.12 652.038 47.264 652.038 48.544C652.038 49.824 651.734 50.968 651.126 51.976C650.518 52.984 649.678 53.776 648.606 54.352C647.534 54.912 646.318 55.192 644.958 55.192ZM644.958 52.12C645.918 52.12 646.702 51.8 647.31 51.16C647.934 50.504 648.246 49.632 648.246 48.544C648.246 47.456 647.934 46.592 647.31 45.952C646.702 45.296 645.918 44.968 644.958 44.968C643.998 44.968 643.206 45.296 642.582 45.952C641.958 46.592 641.646 47.456 641.646 48.544C641.646 49.632 641.958 50.504 642.582 51.16C643.206 51.8 643.998 52.12 644.958 52.12ZM662.869 54.376C662.501 54.648 662.045 54.856 661.501 55C660.973 55.128 660.413 55.192 659.821 55.192C658.285 55.192 657.093 54.8 656.245 54.016C655.413 53.232 654.997 52.08 654.997 50.56V45.256H653.005V42.376H654.997V39.232H658.741V42.376H661.957V45.256H658.741V50.512C658.741 51.056 658.877 51.48 659.148 51.784C659.437 52.072 659.837 52.216 660.349 52.216C660.941 52.216 661.445 52.056 661.861 51.736L662.869 54.376ZM670.716 55.192C669.356 55.192 668.132 54.912 667.044 54.352C665.972 53.776 665.132 52.984 664.524 51.976C663.916 50.968 663.612 49.824 663.612 48.544C663.612 47.264 663.916 46.12 664.524 45.112C665.132 44.104 665.972 43.32 667.044 42.76C668.132 42.184 669.356 41.896 670.716 41.896C672.076 41.896 673.292 42.184 674.364 42.76C675.436 43.32 676.276 44.104 676.884 45.112C677.492 46.12 677.796 47.264 677.796 48.544C677.796 49.824 677.492 50.968 676.884 51.976C676.276 52.984 675.436 53.776 674.364 54.352C673.292 54.912 672.076 55.192 670.716 55.192ZM670.716 52.12C671.676 52.12 672.46 51.8 673.068 51.16C673.692 50.504 674.004 49.632 674.004 48.544C674.004 47.456 673.692 46.592 673.068 45.952C672.46 45.296 671.676 44.968 670.716 44.968C669.756 44.968 668.964 45.296 668.34 45.952C667.716 46.592 667.404 47.456 667.404 48.544C667.404 49.632 667.716 50.504 668.34 51.16C668.964 51.8 669.756 52.12 670.716 52.12ZM686.538 55.192C685.162 55.192 683.922 54.912 682.818 54.352C681.73 53.776 680.874 52.984 680.25 51.976C679.642 50.968 679.338 49.824 679.338 48.544C679.338 47.264 679.642 46.12 680.25 45.112C680.874 44.104 681.73 43.32 682.818 42.76C683.922 42.184 685.162 41.896 686.538 41.896C687.898 41.896 689.082 42.184 690.09 42.76C691.114 43.32 691.858 44.128 692.322 45.184L689.418 46.744C688.746 45.56 687.778 44.968 686.514 44.968C685.538 44.968 684.73 45.288 684.09 45.928C683.45 46.568 683.13 47.44 683.13 48.544C683.13 49.648 683.45 50.52 684.09 51.16C684.73 51.8 685.538 52.12 686.514 52.12C687.794 52.12 688.762 51.528 689.418 50.344L692.322 51.928C691.858 52.952 691.114 53.752 690.09 54.328C689.082 54.904 687.898 55.192 686.538 55.192ZM700.458 55.192C699.098 55.192 697.874 54.912 696.786 54.352C695.714 53.776 694.874 52.984 694.266 51.976C693.658 50.968 693.354 49.824 693.354 48.544C693.354 47.264 693.658 46.12 694.266 45.112C694.874 44.104 695.714 43.32 696.786 42.76C697.874 42.184 699.098 41.896 700.458 41.896C701.818 41.896 703.034 42.184 704.106 42.76C705.178 43.32 706.018 44.104 706.626 45.112C707.234 46.12 707.538 47.264 707.538 48.544C707.538 49.824 707.234 50.968 706.626 51.976C706.018 52.984 705.178 53.776 704.106 54.352C703.034 54.912 701.818 55.192 700.458 55.192ZM700.458 52.12C701.418 52.12 702.202 51.8 702.81 51.16C703.434 50.504 703.746 49.632 703.746 48.544C703.746 47.456 703.434 46.592 702.81 45.952C702.202 45.296 701.418 44.968 700.458 44.968C699.498 44.968 698.706 45.296 698.082 45.952C697.458 46.592 697.146 47.456 697.146 48.544C697.146 49.632 697.458 50.504 698.082 51.16C698.706 51.8 699.498 52.12 700.458 52.12ZM710.041 37.192H713.785V55H710.041V37.192Z" fill="#FAFAFA"/>
<rect x="-12" y="189" width="1952" height="12" fill="#1D1D1D"/>
<rect x="378" y="189" width="992" height="12" fill="#212121"/>
<rect x="378" y="189" width="411" height="12" fill="#4F4F4F"/>
<rect x="789" y="189" width="202" height="12" fill="#373737"/>
<rect x="991" y="189" width="207" height="12" fill="#2C2C2C"/>
<g filter="url(#filter0_dd)">
<rect x="378" y="189" width="202" height="12" fill="#32EEFF"/>
</g>
<line x1="578.756" y1="201.002" x2="578.756" y2="120.999" stroke="#32EEFF" stroke-width="3"/>
<line x1="788" y1="271.002" x2="788" y2="190.999" stroke="#4F4F4F" stroke-width="2"/>
<path d="M962.318 96L962.304 89.504L959.084 94.88H958.272L955.052 89.588V96H953.316V86.2H954.814L958.706 92.696L962.528 86.2H964.026L964.04 96H962.318ZM973.043 93.732H968.143L967.177 96H965.301L969.711 86.2H971.503L975.927 96H974.023L973.043 93.732ZM972.441 92.304L970.593 88.02L968.759 92.304H972.441ZM983.585 96L981.583 93.13C981.499 93.1393 981.373 93.144 981.205 93.144H978.993V96H977.173V86.2H981.205C982.055 86.2 982.792 86.34 983.417 86.62C984.052 86.9 984.537 87.3013 984.873 87.824C985.209 88.3467 985.377 88.9673 985.377 89.686C985.377 90.4233 985.195 91.058 984.831 91.59C984.477 92.122 983.963 92.5187 983.291 92.78L985.545 96H983.585ZM983.543 89.686C983.543 89.0607 983.338 88.58 982.927 88.244C982.517 87.908 981.915 87.74 981.121 87.74H978.993V91.646H981.121C981.915 91.646 982.517 91.478 982.927 91.142C983.338 90.7967 983.543 90.3113 983.543 89.686ZM991.95 96.14C990.96 96.14 990.064 95.9253 989.262 95.496C988.468 95.0573 987.843 94.4553 987.386 93.69C986.938 92.9247 986.714 92.0613 986.714 91.1C986.714 90.1387 986.942 89.2753 987.4 88.51C987.857 87.7447 988.482 87.1473 989.276 86.718C990.078 86.2793 990.974 86.06 991.964 86.06C992.766 86.06 993.499 86.2 994.162 86.48C994.824 86.76 995.384 87.166 995.842 87.698L994.666 88.804C993.956 88.0387 993.084 87.656 992.048 87.656C991.376 87.656 990.774 87.8053 990.242 88.104C989.71 88.3933 989.294 88.7993 988.996 89.322C988.697 89.8447 988.548 90.4373 988.548 91.1C988.548 91.7627 988.697 92.3553 988.996 92.878C989.294 93.4007 989.71 93.8113 990.242 94.11C990.774 94.3993 991.376 94.544 992.048 94.544C993.084 94.544 993.956 94.1567 994.666 93.382L995.842 94.502C995.384 95.034 994.82 95.44 994.148 95.72C993.485 96 992.752 96.14 991.95 96.14ZM1006.29 86.2V96H1004.47V91.8H999.406V96H997.586V86.2H999.406V90.246H1004.47V86.2H1006.29ZM1019.19 94.46V96H1011.96V94.782L1015.85 91.086C1016.29 90.666 1016.59 90.302 1016.74 89.994C1016.9 89.6767 1016.97 89.364 1016.97 89.056C1016.97 88.5987 1016.82 88.2487 1016.51 88.006C1016.2 87.7633 1015.75 87.642 1015.15 87.642C1014.16 87.642 1013.39 87.9827 1012.86 88.664L1011.58 87.684C1011.97 87.1707 1012.48 86.774 1013.12 86.494C1013.78 86.2047 1014.51 86.06 1015.31 86.06C1016.37 86.06 1017.22 86.312 1017.86 86.816C1018.49 87.32 1018.81 88.006 1018.81 88.874C1018.81 89.406 1018.7 89.9053 1018.47 90.372C1018.25 90.8387 1017.82 91.3707 1017.18 91.968L1014.57 94.46H1019.19ZM1024.28 96.14C1023.5 96.14 1022.8 95.944 1022.18 95.552C1021.57 95.1507 1021.08 94.572 1020.73 93.816C1020.37 93.0507 1020.2 92.1453 1020.2 91.1C1020.2 90.0547 1020.37 89.154 1020.73 88.398C1021.08 87.6327 1021.57 87.054 1022.18 86.662C1022.8 86.2607 1023.5 86.06 1024.28 86.06C1025.07 86.06 1025.77 86.2607 1026.38 86.662C1027.01 87.054 1027.5 87.6327 1027.85 88.398C1028.21 89.154 1028.39 90.0547 1028.39 91.1C1028.39 92.1453 1028.21 93.0507 1027.85 93.816C1027.5 94.572 1027.01 95.1507 1026.38 95.552C1025.77 95.944 1025.07 96.14 1024.28 96.14ZM1024.28 94.558C1024.98 94.558 1025.53 94.2687 1025.94 93.69C1026.35 93.1113 1026.55 92.248 1026.55 91.1C1026.55 89.952 1026.35 89.0887 1025.94 88.51C1025.53 87.9313 1024.98 87.642 1024.28 87.642C1023.59 87.642 1023.04 87.9313 1022.63 88.51C1022.23 89.0887 1022.03 89.952 1022.03 91.1C1022.03 92.248 1022.23 93.1113 1022.63 93.69C1023.04 94.2687 1023.59 94.558 1024.28 94.558ZM1036.65 94.46V96H1029.42V94.782L1033.31 91.086C1033.75 90.666 1034.05 90.302 1034.2 89.994C1034.35 89.6767 1034.43 89.364 1034.43 89.056C1034.43 88.5987 1034.28 88.2487 1033.97 88.006C1033.66 87.7633 1033.21 87.642 1032.61 87.642C1031.61 87.642 1030.85 87.9827 1030.32 88.664L1029.04 87.684C1029.43 87.1707 1029.94 86.774 1030.58 86.494C1031.24 86.2047 1031.96 86.06 1032.77 86.06C1033.83 86.06 1034.68 86.312 1035.32 86.816C1035.95 87.32 1036.27 88.006 1036.27 88.874C1036.27 89.406 1036.16 89.9053 1035.93 90.372C1035.71 90.8387 1035.28 91.3707 1034.64 91.968L1032.03 94.46H1036.65ZM1041.87 90.246C1042.77 90.358 1043.46 90.666 1043.94 91.17C1044.42 91.674 1044.65 92.304 1044.65 93.06C1044.65 93.6293 1044.51 94.1473 1044.22 94.614C1043.93 95.0807 1043.49 95.454 1042.9 95.734C1042.33 96.0047 1041.62 96.14 1040.78 96.14C1040.08 96.14 1039.4 96.042 1038.75 95.846C1038.1 95.6407 1037.55 95.3607 1037.09 95.006L1037.88 93.592C1038.23 93.8907 1038.66 94.1287 1039.17 94.306C1039.68 94.474 1040.21 94.558 1040.75 94.558C1041.39 94.558 1041.9 94.4273 1042.26 94.166C1042.63 93.8953 1042.82 93.5313 1042.82 93.074C1042.82 92.6167 1042.64 92.262 1042.29 92.01C1041.94 91.7487 1041.41 91.618 1040.69 91.618H1039.8V90.372L1042.02 87.726H1037.57V86.2H1044.25V87.418L1041.87 90.246Z" fill="#32EEFF"/>
<path d="M930.613 7.2H934.501V20.832H942.925V24H930.613V7.2ZM944.833 11.088H948.577V24H944.833V11.088ZM946.705 9.288C946.017 9.288 945.457 9.088 945.025 8.688C944.593 8.288 944.377 7.792 944.377 7.2C944.377 6.608 944.593 6.112 945.025 5.712C945.457 5.312 946.017 5.112 946.705 5.112C947.393 5.112 947.953 5.304 948.385 5.688C948.817 6.072 949.033 6.552 949.033 7.128C949.033 7.752 948.817 8.272 948.385 8.688C947.953 9.088 947.393 9.288 946.705 9.288ZM956.396 24.192C955.324 24.192 954.276 24.064 953.252 23.808C952.228 23.536 951.412 23.2 950.804 22.8L952.052 20.112C952.628 20.48 953.324 20.784 954.14 21.024C954.956 21.248 955.756 21.36 956.54 21.36C958.124 21.36 958.916 20.968 958.916 20.184C958.916 19.816 958.7 19.552 958.268 19.392C957.836 19.232 957.172 19.096 956.276 18.984C955.22 18.824 954.348 18.64 953.66 18.432C952.972 18.224 952.372 17.856 951.86 17.328C951.364 16.8 951.116 16.048 951.116 15.072C951.116 14.256 951.348 13.536 951.812 12.912C952.292 12.272 952.98 11.776 953.876 11.424C954.788 11.072 955.86 10.896 957.092 10.896C958.004 10.896 958.908 11 959.804 11.208C960.716 11.4 961.468 11.672 962.06 12.024L960.812 14.688C959.676 14.048 958.436 13.728 957.092 13.728C956.292 13.728 955.692 13.84 955.292 14.064C954.892 14.288 954.692 14.576 954.692 14.928C954.692 15.328 954.908 15.608 955.34 15.768C955.772 15.928 956.46 16.08 957.404 16.224C958.46 16.4 959.324 16.592 959.996 16.8C960.668 16.992 961.252 17.352 961.748 17.88C962.244 18.408 962.492 19.144 962.492 20.088C962.492 20.888 962.252 21.6 961.772 22.224C961.292 22.848 960.588 23.336 959.66 23.688C958.748 24.024 957.66 24.192 956.396 24.192ZM973.13 23.376C972.762 23.648 972.306 23.856 971.762 24C971.234 24.128 970.674 24.192 970.082 24.192C968.546 24.192 967.354 23.8 966.506 23.016C965.674 22.232 965.258 21.08 965.258 19.56V14.256H963.266V11.376H965.258V8.232H969.002V11.376H972.218V14.256H969.002V19.512C969.002 20.056 969.138 20.48 969.41 20.784C969.698 21.072 970.098 21.216 970.61 21.216C971.202 21.216 971.706 21.056 972.122 20.736L973.13 23.376ZM975.232 11.088H978.976V24H975.232V11.088ZM977.104 9.288C976.416 9.288 975.856 9.088 975.424 8.688C974.992 8.288 974.776 7.792 974.776 7.2C974.776 6.608 974.992 6.112 975.424 5.712C975.856 5.312 976.416 5.112 977.104 5.112C977.792 5.112 978.352 5.304 978.784 5.688C979.216 6.072 979.432 6.552 979.432 7.128C979.432 7.752 979.216 8.272 978.784 8.688C978.352 9.088 977.792 9.288 977.104 9.288ZM990.299 10.896C991.899 10.896 993.187 11.376 994.163 12.336C995.155 13.296 995.651 14.72 995.651 16.608V24H991.907V17.184C991.907 16.16 991.683 15.4 991.235 14.904C990.787 14.392 990.139 14.136 989.291 14.136C988.347 14.136 987.595 14.432 987.035 15.024C986.475 15.6 986.195 16.464 986.195 17.616V24H982.451V11.088H986.027V12.6C986.523 12.056 987.139 11.64 987.875 11.352C988.611 11.048 989.419 10.896 990.299 10.896ZM1012.51 11.088V21.84C1012.51 24.208 1011.89 25.968 1010.66 27.12C1009.43 28.272 1007.63 28.848 1005.26 28.848C1004.01 28.848 1002.83 28.696 1001.71 28.392C1000.59 28.088 999.657 27.648 998.921 27.072L1000.41 24.384C1000.95 24.832 1001.64 25.184 1002.47 25.44C1003.31 25.712 1004.14 25.848 1004.97 25.848C1006.27 25.848 1007.22 25.552 1007.83 24.96C1008.45 24.384 1008.76 23.504 1008.76 22.32V21.768C1007.79 22.84 1006.43 23.376 1004.68 23.376C1003.5 23.376 1002.41 23.12 1001.42 22.608C1000.44 22.08 999.665 21.344 999.089 20.4C998.513 19.456 998.225 18.368 998.225 17.136C998.225 15.904 998.513 14.816 999.089 13.872C999.665 12.928 1000.44 12.2 1001.42 11.688C1002.41 11.16 1003.5 10.896 1004.68 10.896C1006.55 10.896 1007.98 11.512 1008.95 12.744V11.088H1012.51ZM1005.43 20.304C1006.42 20.304 1007.23 20.016 1007.85 19.44C1008.49 18.848 1008.81 18.08 1008.81 17.136C1008.81 16.192 1008.49 15.432 1007.85 14.856C1007.23 14.264 1006.42 13.968 1005.43 13.968C1004.43 13.968 1003.62 14.264 1002.98 14.856C1002.34 15.432 1002.02 16.192 1002.02 17.136C1002.02 18.08 1002.34 18.848 1002.98 19.44C1003.62 20.016 1004.43 20.304 1005.43 20.304ZM1028.93 24.192C1027.57 24.192 1026.35 23.912 1025.26 23.352C1024.19 22.776 1023.35 21.984 1022.74 20.976C1022.13 19.968 1021.83 18.824 1021.83 17.544C1021.83 16.264 1022.13 15.12 1022.74 14.112C1023.35 13.104 1024.19 12.32 1025.26 11.76C1026.35 11.184 1027.57 10.896 1028.93 10.896C1030.29 10.896 1031.51 11.184 1032.58 11.76C1033.65 12.32 1034.49 13.104 1035.1 14.112C1035.71 15.12 1036.01 16.264 1036.01 17.544C1036.01 18.824 1035.71 19.968 1035.1 20.976C1034.49 21.984 1033.65 22.776 1032.58 23.352C1031.51 23.912 1030.29 24.192 1028.93 24.192ZM1028.93 21.12C1029.89 21.12 1030.67 20.8 1031.28 20.16C1031.91 19.504 1032.22 18.632 1032.22 17.544C1032.22 16.456 1031.91 15.592 1031.28 14.952C1030.67 14.296 1029.89 13.968 1028.93 13.968C1027.97 13.968 1027.18 14.296 1026.55 14.952C1025.93 15.592 1025.62 16.456 1025.62 17.544C1025.62 18.632 1025.93 19.504 1026.55 20.16C1027.18 20.8 1027.97 21.12 1028.93 21.12ZM1046.36 10.896C1047.96 10.896 1049.25 11.376 1050.23 12.336C1051.22 13.296 1051.71 14.72 1051.71 16.608V24H1047.97V17.184C1047.97 16.16 1047.75 15.4 1047.3 14.904C1046.85 14.392 1046.2 14.136 1045.35 14.136C1044.41 14.136 1043.66 14.432 1043.1 15.024C1042.54 15.6 1042.26 16.464 1042.26 17.616V24H1038.51V11.088H1042.09V12.6C1042.59 12.056 1043.2 11.64 1043.94 11.352C1044.67 11.048 1045.48 10.896 1046.36 10.896ZM944.008 51.88V55H931V38.2H943.696V41.32H934.864V44.968H942.664V47.992H934.864V51.88H944.008ZM954.881 55L952.049 51.04L949.121 55H945.041L950.009 48.496L945.209 42.088H949.409L952.145 45.856L954.953 42.088H958.937L954.137 48.4L959.129 55H954.881ZM966.788 55.192C965.412 55.192 964.172 54.912 963.068 54.352C961.98 53.776 961.124 52.984 960.5 51.976C959.892 50.968 959.588 49.824 959.588 48.544C959.588 47.264 959.892 46.12 960.5 45.112C961.124 44.104 961.98 43.32 963.068 42.76C964.172 42.184 965.412 41.896 966.788 41.896C968.148 41.896 969.332 42.184 970.34 42.76C971.364 43.32 972.108 44.128 972.572 45.184L969.668 46.744C968.996 45.56 968.028 44.968 966.764 44.968C965.788 44.968 964.98 45.288 964.34 45.928C963.7 46.568 963.38 47.44 963.38 48.544C963.38 49.648 963.7 50.52 964.34 51.16C964.98 51.8 965.788 52.12 966.764 52.12C968.044 52.12 969.012 51.528 969.668 50.344L972.572 51.928C972.108 52.952 971.364 53.752 970.34 54.328C969.332 54.904 968.148 55.192 966.788 55.192ZM982.482 41.896C984.082 41.896 985.37 42.376 986.346 43.336C987.338 44.296 987.834 45.72 987.834 47.608V55H984.09V48.184C984.09 47.16 983.866 46.4 983.418 45.904C982.97 45.392 982.322 45.136 981.474 45.136C980.53 45.136 979.778 45.432 979.218 46.024C978.658 46.6 978.378 47.464 978.378 48.616V55H974.634V37.192H978.378V43.432C978.874 42.936 979.474 42.56 980.178 42.304C980.882 42.032 981.65 41.896 982.482 41.896ZM996.436 41.896C998.436 41.896 999.972 42.376 1001.04 43.336C1002.12 44.28 1002.65 45.712 1002.65 47.632V55H999.148V53.392C998.444 54.592 997.132 55.192 995.212 55.192C994.22 55.192 993.356 55.024 992.62 54.688C991.9 54.352 991.348 53.888 990.964 53.296C990.58 52.704 990.388 52.032 990.388 51.28C990.388 50.08 990.836 49.136 991.732 48.448C992.644 47.76 994.044 47.416 995.932 47.416H998.908C998.908 46.6 998.66 45.976 998.164 45.544C997.668 45.096 996.924 44.872 995.932 44.872C995.244 44.872 994.564 44.984 993.892 45.208C993.236 45.416 992.676 45.704 992.212 46.072L990.868 43.456C991.572 42.96 992.412 42.576 993.388 42.304C994.38 42.032 995.396 41.896 996.436 41.896ZM996.148 52.672C996.788 52.672 997.356 52.528 997.852 52.24C998.348 51.936 998.7 51.496 998.908 50.92V49.6H996.34C994.804 49.6 994.036 50.104 994.036 51.112C994.036 51.592 994.22 51.976 994.588 52.264C994.972 52.536 995.492 52.672 996.148 52.672ZM1013.89 41.896C1015.49 41.896 1016.78 42.376 1017.75 43.336C1018.74 44.296 1019.24 45.72 1019.24 47.608V55H1015.5V48.184C1015.5 47.16 1015.27 46.4 1014.82 45.904C1014.38 45.392 1013.73 45.136 1012.88 45.136C1011.94 45.136 1011.18 45.432 1010.62 46.024C1010.06 46.6 1009.78 47.464 1009.78 48.616V55H1006.04V42.088H1009.62V43.6C1010.11 43.056 1010.73 42.64 1011.46 42.352C1012.2 42.048 1013.01 41.896 1013.89 41.896ZM1036.09 42.088V52.84C1036.09 55.208 1035.48 56.968 1034.25 58.12C1033.01 59.272 1031.21 59.848 1028.85 59.848C1027.6 59.848 1026.41 59.696 1025.29 59.392C1024.17 59.088 1023.25 58.648 1022.51 58.072L1024 55.384C1024.54 55.832 1025.23 56.184 1026.06 56.44C1026.89 56.712 1027.73 56.848 1028.56 56.848C1029.85 56.848 1030.81 56.552 1031.41 55.96C1032.04 55.384 1032.35 54.504 1032.35 53.32V52.768C1031.37 53.84 1030.01 54.376 1028.27 54.376C1027.09 54.376 1026 54.12 1025.01 53.608C1024.03 53.08 1023.25 52.344 1022.68 51.4C1022.1 50.456 1021.81 49.368 1021.81 48.136C1021.81 46.904 1022.1 45.816 1022.68 44.872C1023.25 43.928 1024.03 43.2 1025.01 42.688C1026 42.16 1027.09 41.896 1028.27 41.896C1030.14 41.896 1031.57 42.512 1032.54 43.744V42.088H1036.09ZM1029.01 51.304C1030.01 51.304 1030.81 51.016 1031.44 50.44C1032.08 49.848 1032.4 49.08 1032.4 48.136C1032.4 47.192 1032.08 46.432 1031.44 45.856C1030.81 45.264 1030.01 44.968 1029.01 44.968C1028.02 44.968 1027.21 45.264 1026.57 45.856C1025.93 46.432 1025.61 47.192 1025.61 48.136C1025.61 49.08 1025.93 49.848 1026.57 50.44C1027.21 51.016 1028.02 51.304 1029.01 51.304ZM1052.23 48.592C1052.23 48.64 1052.2 48.976 1052.16 49.6H1042.39C1042.56 50.4 1042.98 51.032 1043.64 51.496C1044.29 51.96 1045.11 52.192 1046.08 52.192C1046.76 52.192 1047.35 52.096 1047.86 51.904C1048.39 51.696 1048.88 51.376 1049.32 50.944L1051.32 53.104C1050.1 54.496 1048.32 55.192 1045.99 55.192C1044.53 55.192 1043.24 54.912 1042.12 54.352C1041 53.776 1040.14 52.984 1039.53 51.976C1038.92 50.968 1038.62 49.824 1038.62 48.544C1038.62 47.28 1038.92 46.144 1039.51 45.136C1040.12 44.112 1040.94 43.32 1041.98 42.76C1043.04 42.184 1044.21 41.896 1045.51 41.896C1046.77 41.896 1047.92 42.168 1048.94 42.712C1049.96 43.256 1050.76 44.04 1051.34 45.064C1051.93 46.072 1052.23 47.248 1052.23 48.592ZM1045.53 44.728C1044.68 44.728 1043.97 44.968 1043.4 45.448C1042.82 45.928 1042.47 46.584 1042.34 47.416H1048.7C1048.57 46.6 1048.22 45.952 1047.64 45.472C1047.07 44.976 1046.36 44.728 1045.53 44.728Z" fill="#FAFAFA"/>
<line x1="990" y1="197.002" x2="990" y2="116.999" stroke="#373737" stroke-width="2"/>
<line x1="1369" y1="201.002" x2="1369" y2="120.999" stroke="#2A2A2A" stroke-width="2"/>
<line x1="1197" y1="280.002" x2="1197" y2="199.999" stroke="#2A2A2A" stroke-width="2"/>
<path d="M1314.85 100.14C1313.86 100.14 1312.97 99.9253 1312.16 99.496C1311.37 99.0573 1310.75 98.4553 1310.29 97.69C1309.84 96.9247 1309.62 96.0613 1309.62 95.1C1309.62 94.1387 1309.84 93.2753 1310.3 92.51C1310.76 91.7447 1311.38 91.1473 1312.18 90.718C1312.98 90.2793 1313.88 90.06 1314.87 90.06C1315.67 90.06 1316.4 90.2 1317.06 90.48C1317.73 90.76 1318.29 91.166 1318.74 91.698L1317.57 92.804C1316.86 92.0387 1315.99 91.656 1314.95 91.656C1314.28 91.656 1313.68 91.8053 1313.14 92.104C1312.61 92.3933 1312.2 92.7993 1311.9 93.322C1311.6 93.8447 1311.45 94.4373 1311.45 95.1C1311.45 95.7627 1311.6 96.3553 1311.9 96.878C1312.2 97.4007 1312.61 97.8113 1313.14 98.11C1313.68 98.3993 1314.28 98.544 1314.95 98.544C1315.99 98.544 1316.86 98.1567 1317.57 97.382L1318.74 98.502C1318.29 99.034 1317.72 99.44 1317.05 99.72C1316.39 100 1315.65 100.14 1314.85 100.14ZM1324.86 100.14C1323.86 100.14 1322.96 99.9253 1322.16 99.496C1321.36 99.0573 1320.73 98.4553 1320.27 97.69C1319.81 96.9153 1319.58 96.052 1319.58 95.1C1319.58 94.148 1319.81 93.2893 1320.27 92.524C1320.73 91.7493 1321.36 91.1473 1322.16 90.718C1322.96 90.2793 1323.86 90.06 1324.86 90.06C1325.86 90.06 1326.76 90.2793 1327.56 90.718C1328.37 91.1473 1329 91.7447 1329.45 92.51C1329.91 93.2753 1330.14 94.1387 1330.14 95.1C1330.14 96.0613 1329.91 96.9247 1329.45 97.69C1329 98.4553 1328.37 99.0573 1327.56 99.496C1326.76 99.9253 1325.86 100.14 1324.86 100.14ZM1324.86 98.544C1325.51 98.544 1326.1 98.3993 1326.62 98.11C1327.15 97.8113 1327.56 97.4007 1327.86 96.878C1328.16 96.346 1328.3 95.7533 1328.3 95.1C1328.3 94.4467 1328.16 93.8587 1327.86 93.336C1327.56 92.804 1327.15 92.3933 1326.62 92.104C1326.1 91.8053 1325.51 91.656 1324.86 91.656C1324.21 91.656 1323.62 91.8053 1323.1 92.104C1322.57 92.3933 1322.16 92.804 1321.86 93.336C1321.57 93.8587 1321.42 94.4467 1321.42 95.1C1321.42 95.7533 1321.57 96.346 1321.86 96.878C1322.16 97.4007 1322.57 97.8113 1323.1 98.11C1323.62 98.3993 1324.21 98.544 1324.86 98.544ZM1341.07 100L1341.06 93.504L1337.84 98.88H1337.02L1333.8 93.588V100H1332.07V90.2H1333.57L1337.46 96.696L1341.28 90.2H1342.78L1342.79 100H1341.07ZM1354.44 100L1354.43 93.504L1351.21 98.88H1350.4L1347.18 93.588V100H1345.44V90.2H1346.94L1350.83 96.696L1354.65 90.2H1356.15L1356.16 100H1354.44ZM1358.81 90.2H1360.63V100H1358.81V90.2ZM1371.99 90.2V100H1370.49L1365.09 93.364V100H1363.28V90.2H1364.78L1370.18 96.836V90.2H1371.99ZM1381.31 94.988H1383.03V98.894C1382.52 99.2953 1381.94 99.6033 1381.26 99.818C1380.59 100.033 1379.9 100.14 1379.19 100.14C1378.19 100.14 1377.29 99.9253 1376.49 99.496C1375.69 99.0573 1375.06 98.4553 1374.6 97.69C1374.14 96.9247 1373.91 96.0613 1373.91 95.1C1373.91 94.1387 1374.14 93.2753 1374.6 92.51C1375.06 91.7447 1375.69 91.1473 1376.49 90.718C1377.3 90.2793 1378.21 90.06 1379.22 90.06C1380.04 90.06 1380.79 90.1953 1381.46 90.466C1382.13 90.7367 1382.7 91.1333 1383.15 91.656L1382.01 92.776C1381.26 92.0293 1380.36 91.656 1379.3 91.656C1378.61 91.656 1378 91.8007 1377.46 92.09C1376.92 92.3793 1376.5 92.7853 1376.2 93.308C1375.9 93.8307 1375.75 94.428 1375.75 95.1C1375.75 95.7533 1375.9 96.3413 1376.2 96.864C1376.5 97.3867 1376.92 97.7973 1377.46 98.096C1378 98.3947 1378.61 98.544 1379.29 98.544C1380.06 98.544 1380.73 98.376 1381.31 98.04V94.988ZM1392.34 100.14C1391.58 100.14 1390.85 100.033 1390.14 99.818C1389.44 99.6033 1388.88 99.3187 1388.47 98.964L1389.1 97.55C1389.5 97.8673 1389.99 98.1287 1390.57 98.334C1391.16 98.53 1391.75 98.628 1392.34 98.628C1393.06 98.628 1393.61 98.5113 1393.96 98.278C1394.32 98.0447 1394.51 97.7367 1394.51 97.354C1394.51 97.074 1394.4 96.8453 1394.2 96.668C1394 96.4813 1393.75 96.3367 1393.44 96.234C1393.13 96.1313 1392.71 96.0147 1392.18 95.884C1391.44 95.7067 1390.83 95.5293 1390.36 95.352C1389.91 95.1747 1389.51 94.8993 1389.17 94.526C1388.85 94.1433 1388.68 93.63 1388.68 92.986C1388.68 92.4447 1388.83 91.9547 1389.12 91.516C1389.42 91.068 1389.86 90.7133 1390.45 90.452C1391.04 90.1907 1391.77 90.06 1392.63 90.06C1393.23 90.06 1393.82 90.1347 1394.39 90.284C1394.97 90.4333 1395.47 90.648 1395.89 90.928L1395.32 92.342C1394.89 92.09 1394.44 91.8987 1393.97 91.768C1393.51 91.6373 1393.06 91.572 1392.62 91.572C1391.9 91.572 1391.36 91.6933 1391.01 91.936C1390.66 92.1787 1390.49 92.5007 1390.49 92.902C1390.49 93.182 1390.59 93.4107 1390.78 93.588C1390.99 93.7653 1391.24 93.9053 1391.55 94.008C1391.86 94.1107 1392.28 94.2273 1392.81 94.358C1393.54 94.526 1394.14 94.7033 1394.6 94.89C1395.07 95.0673 1395.47 95.3427 1395.79 95.716C1396.13 96.0893 1396.3 96.5933 1396.3 97.228C1396.3 97.7693 1396.15 98.2593 1395.85 98.698C1395.56 99.1367 1395.12 99.4867 1394.52 99.748C1393.92 100.009 1393.2 100.14 1392.34 100.14ZM1402.68 100.14C1401.68 100.14 1400.78 99.9253 1399.98 99.496C1399.18 99.0573 1398.55 98.4553 1398.09 97.69C1397.63 96.9153 1397.4 96.052 1397.4 95.1C1397.4 94.148 1397.63 93.2893 1398.09 92.524C1398.55 91.7493 1399.18 91.1473 1399.98 90.718C1400.78 90.2793 1401.68 90.06 1402.68 90.06C1403.68 90.06 1404.58 90.2793 1405.38 90.718C1406.19 91.1473 1406.82 91.7447 1407.27 92.51C1407.73 93.2753 1407.96 94.1387 1407.96 95.1C1407.96 96.0613 1407.73 96.9247 1407.27 97.69C1406.82 98.4553 1406.19 99.0573 1405.38 99.496C1404.58 99.9253 1403.68 100.14 1402.68 100.14ZM1402.68 98.544C1403.33 98.544 1403.92 98.3993 1404.45 98.11C1404.97 97.8113 1405.38 97.4007 1405.68 96.878C1405.98 96.346 1406.13 95.7533 1406.13 95.1C1406.13 94.4467 1405.98 93.8587 1405.68 93.336C1405.38 92.804 1404.97 92.3933 1404.45 92.104C1403.92 91.8053 1403.33 91.656 1402.68 91.656C1402.03 91.656 1401.44 91.8053 1400.92 92.104C1400.39 92.3933 1399.98 92.804 1399.69 93.336C1399.39 93.8587 1399.24 94.4467 1399.24 95.1C1399.24 95.7533 1399.39 96.346 1399.69 96.878C1399.98 97.4007 1400.39 97.8113 1400.92 98.11C1401.44 98.3993 1402.03 98.544 1402.68 98.544ZM1414.47 100.14C1413.47 100.14 1412.57 99.9253 1411.76 99.496C1410.96 99.0573 1410.33 98.4553 1409.87 97.69C1409.42 96.9153 1409.19 96.052 1409.19 95.1C1409.19 94.148 1409.42 93.2893 1409.87 92.524C1410.33 91.7493 1410.96 91.1473 1411.76 90.718C1412.57 90.2793 1413.47 90.06 1414.47 90.06C1415.46 90.06 1416.37 90.2793 1417.17 90.718C1417.97 91.1473 1418.6 91.7447 1419.06 92.51C1419.52 93.2753 1419.74 94.1387 1419.74 95.1C1419.74 96.0613 1419.52 96.9247 1419.06 97.69C1418.6 98.4553 1417.97 99.0573 1417.17 99.496C1416.37 99.9253 1415.46 100.14 1414.47 100.14ZM1414.47 98.544C1415.12 98.544 1415.71 98.3993 1416.23 98.11C1416.75 97.8113 1417.16 97.4007 1417.46 96.878C1417.76 96.346 1417.91 95.7533 1417.91 95.1C1417.91 94.4467 1417.76 93.8587 1417.46 93.336C1417.16 92.804 1416.75 92.3933 1416.23 92.104C1415.71 91.8053 1415.12 91.656 1414.47 91.656C1413.81 91.656 1413.22 91.8053 1412.7 92.104C1412.18 92.3933 1411.77 92.804 1411.47 93.336C1411.17 93.8587 1411.02 94.4467 1411.02 95.1C1411.02 95.7533 1411.17 96.346 1411.47 96.878C1411.77 97.4007 1412.18 97.8113 1412.7 98.11C1413.22 98.3993 1413.81 98.544 1414.47 98.544ZM1430.38 90.2V100H1428.88L1423.48 93.364V100H1421.67V90.2H1423.17L1428.58 96.836V90.2H1430.38Z" fill="#32EEFF"/>
<path d="M1270.6 10.32V14.76H1278.38V17.88H1270.6V24H1266.71V7.2H1279.41V10.32H1270.6ZM1294.46 11.088V24H1290.91V22.464C1290.41 23.024 1289.82 23.456 1289.13 23.76C1288.44 24.048 1287.7 24.192 1286.9 24.192C1285.2 24.192 1283.86 23.704 1282.87 22.728C1281.87 21.752 1281.38 20.304 1281.38 18.384V11.088H1285.12V17.832C1285.12 19.912 1285.99 20.952 1287.74 20.952C1288.63 20.952 1289.35 20.664 1289.9 20.088C1290.44 19.496 1290.71 18.624 1290.71 17.472V11.088H1294.46ZM1306.26 23.376C1305.89 23.648 1305.43 23.856 1304.89 24C1304.36 24.128 1303.8 24.192 1303.21 24.192C1301.67 24.192 1300.48 23.8 1299.63 23.016C1298.8 22.232 1298.38 21.08 1298.38 19.56V14.256H1296.39V11.376H1298.38V8.232H1302.13V11.376H1305.34V14.256H1302.13V19.512C1302.13 20.056 1302.26 20.48 1302.54 20.784C1302.82 21.072 1303.22 21.216 1303.74 21.216C1304.33 21.216 1304.83 21.056 1305.25 20.736L1306.26 23.376ZM1321.36 11.088V24H1317.81V22.464C1317.32 23.024 1316.72 23.456 1316.04 23.76C1315.35 24.048 1314.6 24.192 1313.8 24.192C1312.11 24.192 1310.76 23.704 1309.77 22.728C1308.78 21.752 1308.28 20.304 1308.28 18.384V11.088H1312.03V17.832C1312.03 19.912 1312.9 20.952 1314.64 20.952C1315.54 20.952 1316.26 20.664 1316.8 20.088C1317.35 19.496 1317.62 18.624 1317.62 17.472V11.088H1321.36ZM1328.41 12.792C1328.86 12.168 1329.46 11.696 1330.21 11.376C1330.98 11.056 1331.86 10.896 1332.85 10.896V14.352C1332.43 14.32 1332.15 14.304 1332.01 14.304C1330.94 14.304 1330.1 14.608 1329.49 15.216C1328.88 15.808 1328.58 16.704 1328.58 17.904V24H1324.83V11.088H1328.41V12.792ZM1347.61 17.592C1347.61 17.64 1347.58 17.976 1347.53 18.6H1337.77C1337.94 19.4 1338.36 20.032 1339.01 20.496C1339.67 20.96 1340.49 21.192 1341.46 21.192C1342.13 21.192 1342.73 21.096 1343.24 20.904C1343.77 20.696 1344.25 20.376 1344.7 19.944L1346.69 22.104C1345.48 23.496 1343.7 24.192 1341.37 24.192C1339.91 24.192 1338.62 23.912 1337.5 23.352C1336.38 22.776 1335.52 21.984 1334.91 20.976C1334.3 19.968 1334 18.824 1334 17.544C1334 16.28 1334.29 15.144 1334.89 14.136C1335.49 13.112 1336.32 12.32 1337.36 11.76C1338.41 11.184 1339.59 10.896 1340.89 10.896C1342.15 10.896 1343.29 11.168 1344.32 11.712C1345.34 12.256 1346.14 13.04 1346.72 14.064C1347.31 15.072 1347.61 16.248 1347.61 17.592ZM1340.91 13.728C1340.06 13.728 1339.35 13.968 1338.77 14.448C1338.2 14.928 1337.85 15.584 1337.72 16.416H1344.08C1343.95 15.6 1343.6 14.952 1343.02 14.472C1342.45 13.976 1341.74 13.728 1340.91 13.728ZM1364.62 24.288C1362.22 24.288 1360.35 23.624 1359.01 22.296C1357.68 20.968 1357.02 19.072 1357.02 16.608V7.2H1360.9V16.464C1360.9 19.472 1362.15 20.976 1364.65 20.976C1365.86 20.976 1366.79 20.616 1367.43 19.896C1368.07 19.16 1368.39 18.016 1368.39 16.464V7.2H1372.23V16.608C1372.23 19.072 1371.56 20.968 1370.22 22.296C1368.89 23.624 1367.02 24.288 1364.62 24.288ZM1383.44 10.896C1384.64 10.896 1385.73 11.176 1386.71 11.736C1387.7 12.28 1388.47 13.056 1389.03 14.064C1389.59 15.056 1389.87 16.216 1389.87 17.544C1389.87 18.872 1389.59 20.04 1389.03 21.048C1388.47 22.04 1387.7 22.816 1386.71 23.376C1385.73 23.92 1384.64 24.192 1383.44 24.192C1381.79 24.192 1380.5 23.672 1379.55 22.632V28.656H1375.81V11.088H1379.39V12.576C1380.31 11.456 1381.67 10.896 1383.44 10.896ZM1382.79 21.12C1383.75 21.12 1384.54 20.8 1385.15 20.16C1385.77 19.504 1386.08 18.632 1386.08 17.544C1386.08 16.456 1385.77 15.592 1385.15 14.952C1384.54 14.296 1383.75 13.968 1382.79 13.968C1381.83 13.968 1381.04 14.296 1380.42 14.952C1379.81 15.592 1379.51 16.456 1379.51 17.544C1379.51 18.632 1379.81 19.504 1380.42 20.16C1381.04 20.8 1381.83 21.12 1382.79 21.12ZM1405.7 11.088V21.84C1405.7 24.208 1405.08 25.968 1403.85 27.12C1402.62 28.272 1400.82 28.848 1398.45 28.848C1397.2 28.848 1396.02 28.696 1394.9 28.392C1393.78 28.088 1392.85 27.648 1392.12 27.072L1393.6 24.384C1394.15 24.832 1394.84 25.184 1395.67 25.44C1396.5 25.712 1397.33 25.848 1398.16 25.848C1399.46 25.848 1400.41 25.552 1401.02 24.96C1401.64 24.384 1401.96 23.504 1401.96 22.32V21.768C1400.98 22.84 1399.62 23.376 1397.88 23.376C1396.69 23.376 1395.6 23.12 1394.61 22.608C1393.64 22.08 1392.86 21.344 1392.28 20.4C1391.71 19.456 1391.42 18.368 1391.42 17.136C1391.42 15.904 1391.71 14.816 1392.28 13.872C1392.86 12.928 1393.64 12.2 1394.61 11.688C1395.6 11.16 1396.69 10.896 1397.88 10.896C1399.75 10.896 1401.17 11.512 1402.15 12.744V11.088H1405.7ZM1398.62 20.304C1399.61 20.304 1400.42 20.016 1401.04 19.44C1401.68 18.848 1402 18.08 1402 17.136C1402 16.192 1401.68 15.432 1401.04 14.856C1400.42 14.264 1399.61 13.968 1398.62 13.968C1397.63 13.968 1396.81 14.264 1396.17 14.856C1395.53 15.432 1395.21 16.192 1395.21 17.136C1395.21 18.08 1395.53 18.848 1396.17 19.44C1396.81 20.016 1397.63 20.304 1398.62 20.304ZM1412.76 12.792C1413.21 12.168 1413.81 11.696 1414.56 11.376C1415.33 11.056 1416.21 10.896 1417.2 10.896V14.352C1416.79 14.32 1416.51 14.304 1416.36 14.304C1415.29 14.304 1414.45 14.608 1413.84 15.216C1413.23 15.808 1412.93 16.704 1412.93 17.904V24H1409.19V11.088H1412.76V12.792ZM1424.56 10.896C1426.56 10.896 1428.1 11.376 1429.17 12.336C1430.24 13.28 1430.78 14.712 1430.78 16.632V24H1427.28V22.392C1426.57 23.592 1425.26 24.192 1423.34 24.192C1422.35 24.192 1421.48 24.024 1420.75 23.688C1420.03 23.352 1419.48 22.888 1419.09 22.296C1418.71 21.704 1418.52 21.032 1418.52 20.28C1418.52 19.08 1418.96 18.136 1419.86 17.448C1420.77 16.76 1422.17 16.416 1424.06 16.416H1427.04C1427.04 15.6 1426.79 14.976 1426.29 14.544C1425.8 14.096 1425.05 13.872 1424.06 13.872C1423.37 13.872 1422.69 13.984 1422.02 14.208C1421.36 14.416 1420.8 14.704 1420.34 15.072L1419 12.456C1419.7 11.96 1420.54 11.576 1421.52 11.304C1422.51 11.032 1423.52 10.896 1424.56 10.896ZM1424.28 21.672C1424.92 21.672 1425.48 21.528 1425.98 21.24C1426.48 20.936 1426.83 20.496 1427.04 19.92V18.6H1424.47C1422.93 18.6 1422.16 19.104 1422.16 20.112C1422.16 20.592 1422.35 20.976 1422.72 21.264C1423.1 21.536 1423.62 21.672 1424.28 21.672ZM1447.63 11.088V21.84C1447.63 24.208 1447.01 25.968 1445.78 27.12C1444.55 28.272 1442.75 28.848 1440.38 28.848C1439.13 28.848 1437.95 28.696 1436.83 28.392C1435.71 28.088 1434.78 27.648 1434.05 27.072L1435.53 24.384C1436.08 24.832 1436.77 25.184 1437.6 25.44C1438.43 25.712 1439.26 25.848 1440.09 25.848C1441.39 25.848 1442.34 25.552 1442.95 24.96C1443.57 24.384 1443.89 23.504 1443.89 22.32V21.768C1442.91 22.84 1441.55 23.376 1439.81 23.376C1438.62 23.376 1437.53 23.12 1436.54 22.608C1435.57 22.08 1434.79 21.344 1434.21 20.4C1433.64 19.456 1433.35 18.368 1433.35 17.136C1433.35 15.904 1433.64 14.816 1434.21 13.872C1434.79 12.928 1435.57 12.2 1436.54 11.688C1437.53 11.16 1438.62 10.896 1439.81 10.896C1441.68 10.896 1443.1 11.512 1444.08 12.744V11.088H1447.63ZM1440.55 20.304C1441.54 20.304 1442.35 20.016 1442.97 19.44C1443.61 18.848 1443.93 18.08 1443.93 17.136C1443.93 16.192 1443.61 15.432 1442.97 14.856C1442.35 14.264 1441.54 13.968 1440.55 13.968C1439.56 13.968 1438.74 14.264 1438.1 14.856C1437.46 15.432 1437.14 16.192 1437.14 17.136C1437.14 18.08 1437.46 18.848 1438.1 19.44C1438.74 20.016 1439.56 20.304 1440.55 20.304ZM1463.76 17.592C1463.76 17.64 1463.74 17.976 1463.69 18.6H1453.92C1454.1 19.4 1454.51 20.032 1455.17 20.496C1455.83 20.96 1456.64 21.192 1457.62 21.192C1458.29 21.192 1458.88 21.096 1459.39 20.904C1459.92 20.696 1460.41 20.376 1460.86 19.944L1462.85 22.104C1461.63 23.496 1459.86 24.192 1457.52 24.192C1456.07 24.192 1454.78 23.912 1453.66 23.352C1452.54 22.776 1451.67 21.984 1451.07 20.976C1450.46 19.968 1450.15 18.824 1450.15 17.544C1450.15 16.28 1450.45 15.144 1451.04 14.136C1451.65 13.112 1452.47 12.32 1453.51 11.76C1454.57 11.184 1455.75 10.896 1457.04 10.896C1458.31 10.896 1459.45 11.168 1460.47 11.712C1461.5 12.256 1462.3 13.04 1462.87 14.064C1463.47 15.072 1463.76 16.248 1463.76 17.592ZM1457.07 13.728C1456.22 13.728 1455.51 13.968 1454.93 14.448C1454.35 14.928 1454 15.584 1453.87 16.416H1460.23C1460.11 15.6 1459.75 14.952 1459.18 14.472C1458.6 13.976 1457.9 13.728 1457.07 13.728ZM1470.6 24.192C1469.53 24.192 1468.48 24.064 1467.46 23.808C1466.43 23.536 1465.62 23.2 1465.01 22.8L1466.26 20.112C1466.83 20.48 1467.53 20.784 1468.34 21.024C1469.16 21.248 1469.96 21.36 1470.74 21.36C1472.33 21.36 1473.12 20.968 1473.12 20.184C1473.12 19.816 1472.9 19.552 1472.47 19.392C1472.04 19.232 1471.38 19.096 1470.48 18.984C1469.42 18.824 1468.55 18.64 1467.86 18.432C1467.18 18.224 1466.58 17.856 1466.06 17.328C1465.57 16.8 1465.32 16.048 1465.32 15.072C1465.32 14.256 1465.55 13.536 1466.02 12.912C1466.5 12.272 1467.18 11.776 1468.08 11.424C1468.99 11.072 1470.06 10.896 1471.3 10.896C1472.21 10.896 1473.11 11 1474.01 11.208C1474.92 11.4 1475.67 11.672 1476.26 12.024L1475.02 14.688C1473.88 14.048 1472.64 13.728 1471.3 13.728C1470.5 13.728 1469.9 13.84 1469.5 14.064C1469.1 14.288 1468.9 14.576 1468.9 14.928C1468.9 15.328 1469.11 15.608 1469.54 15.768C1469.98 15.928 1470.66 16.08 1471.61 16.224C1472.66 16.4 1473.53 16.592 1474.2 16.8C1474.87 16.992 1475.46 17.352 1475.95 17.88C1476.45 18.408 1476.7 19.144 1476.7 20.088C1476.7 20.888 1476.46 21.6 1475.98 22.224C1475.5 22.848 1474.79 23.336 1473.86 23.688C1472.95 24.024 1471.86 24.192 1470.6 24.192ZM1286.88 55L1286.85 44.92L1281.91 53.224H1280.16L1275.24 45.136V55H1271.59V38.2H1274.81L1281.09 48.64L1287.29 38.2H1290.48L1290.53 55H1286.88ZM1307.52 51.88V55H1294.51V38.2H1307.21V41.32H1298.38V44.968H1306.18V47.992H1298.38V51.88H1307.52ZM1314.09 41.368H1308.72V38.2H1323.36V41.368H1317.98V55H1314.09V41.368ZM1335.67 51.4H1327.87L1326.38 55H1322.4L1329.89 38.2H1333.73L1341.24 55H1337.16L1335.67 51.4ZM1334.45 48.448L1331.78 42.016L1329.12 48.448H1334.45ZM1345.62 41.368H1340.24V38.2H1354.88V41.368H1349.5V55H1345.62V41.368ZM1372.38 38.2V55H1368.49V48.112H1360.86V55H1356.97V38.2H1360.86V44.824H1368.49V38.2H1372.38ZM1389.36 51.88V55H1376.36V38.2H1389.05V41.32H1380.22V44.968H1388.02V47.992H1380.22V51.88H1389.36ZM1397.98 55.288C1396.65 55.288 1395.36 55.112 1394.11 54.76C1392.88 54.392 1391.89 53.92 1391.14 53.344L1392.46 50.416C1393.18 50.944 1394.03 51.368 1395.02 51.688C1396.02 52.008 1397.01 52.168 1398 52.168C1399.1 52.168 1399.92 52.008 1400.45 51.688C1400.98 51.352 1401.24 50.912 1401.24 50.368C1401.24 49.968 1401.08 49.64 1400.76 49.384C1400.46 49.112 1400.06 48.896 1399.56 48.736C1399.08 48.576 1398.42 48.4 1397.59 48.208C1396.31 47.904 1395.26 47.6 1394.45 47.296C1393.63 46.992 1392.93 46.504 1392.34 45.832C1391.76 45.16 1391.47 44.264 1391.47 43.144C1391.47 42.168 1391.74 41.288 1392.26 40.504C1392.79 39.704 1393.58 39.072 1394.64 38.608C1395.71 38.144 1397.02 37.912 1398.55 37.912C1399.62 37.912 1400.67 38.04 1401.7 38.296C1402.72 38.552 1403.62 38.92 1404.38 39.4L1403.18 42.352C1401.63 41.472 1400.08 41.032 1398.53 41.032C1397.44 41.032 1396.63 41.208 1396.1 41.56C1395.59 41.912 1395.34 42.376 1395.34 42.952C1395.34 43.528 1395.63 43.96 1396.22 44.248C1396.83 44.52 1397.75 44.792 1398.98 45.064C1400.26 45.368 1401.31 45.672 1402.13 45.976C1402.94 46.28 1403.64 46.76 1404.22 47.416C1404.81 48.072 1405.1 48.96 1405.1 50.08C1405.1 51.04 1404.83 51.92 1404.29 52.72C1403.76 53.504 1402.96 54.128 1401.89 54.592C1400.82 55.056 1399.51 55.288 1397.98 55.288ZM1407.76 38.2H1411.65V55H1407.76V38.2ZM1421.16 55.288C1419.83 55.288 1418.54 55.112 1417.29 54.76C1416.06 54.392 1415.07 53.92 1414.32 53.344L1415.64 50.416C1416.36 50.944 1417.21 51.368 1418.2 51.688C1419.2 52.008 1420.19 52.168 1421.18 52.168C1422.28 52.168 1423.1 52.008 1423.63 51.688C1424.16 51.352 1424.42 50.912 1424.42 50.368C1424.42 49.968 1424.26 49.64 1423.94 49.384C1423.64 49.112 1423.24 48.896 1422.74 48.736C1422.26 48.576 1421.6 48.4 1420.77 48.208C1419.49 47.904 1418.44 47.6 1417.63 47.296C1416.81 46.992 1416.11 46.504 1415.52 45.832C1414.94 45.16 1414.65 44.264 1414.65 43.144C1414.65 42.168 1414.92 41.288 1415.44 40.504C1415.97 39.704 1416.76 39.072 1417.82 38.608C1418.89 38.144 1420.2 37.912 1421.73 37.912C1422.8 37.912 1423.85 38.04 1424.88 38.296C1425.9 38.552 1426.8 38.92 1427.56 39.4L1426.36 42.352C1424.81 41.472 1423.26 41.032 1421.71 41.032C1420.62 41.032 1419.81 41.208 1419.28 41.56C1418.77 41.912 1418.52 42.376 1418.52 42.952C1418.52 43.528 1418.81 43.96 1419.4 44.248C1420.01 44.52 1420.93 44.792 1422.16 45.064C1423.44 45.368 1424.49 45.672 1425.31 45.976C1426.12 46.28 1426.82 46.76 1427.4 47.416C1427.99 48.072 1428.28 48.96 1428.28 50.08C1428.28 51.04 1428.01 51.92 1427.47 52.72C1426.94 53.504 1426.14 54.128 1425.07 54.592C1424 55.056 1422.69 55.288 1421.16 55.288ZM1449.23 51.832V55H1436.54V52.48L1443.02 46.36C1443.71 45.704 1444.17 45.144 1444.41 44.68C1444.65 44.2 1444.77 43.728 1444.77 43.264C1444.77 42.592 1444.54 42.08 1444.07 41.728C1443.63 41.36 1442.96 41.176 1442.08 41.176C1441.35 41.176 1440.68 41.32 1440.09 41.608C1439.5 41.88 1439 42.296 1438.6 42.856L1435.77 41.032C1436.43 40.056 1437.33 39.296 1438.48 38.752C1439.63 38.192 1440.95 37.912 1442.44 37.912C1443.69 37.912 1444.78 38.12 1445.71 38.536C1446.65 38.936 1447.38 39.512 1447.89 40.264C1448.42 41 1448.68 41.872 1448.68 42.88C1448.68 43.792 1448.49 44.648 1448.11 45.448C1447.72 46.248 1446.98 47.16 1445.87 48.184L1442.01 51.832H1449.23ZM1453.28 55.192C1452.62 55.192 1452.07 54.968 1451.62 54.52C1451.18 54.072 1450.95 53.512 1450.95 52.84C1450.95 52.152 1451.18 51.6 1451.62 51.184C1452.07 50.752 1452.62 50.536 1453.28 50.536C1453.94 50.536 1454.49 50.752 1454.94 51.184C1455.38 51.6 1455.61 52.152 1455.61 52.84C1455.61 53.512 1455.38 54.072 1454.94 54.52C1454.49 54.968 1453.94 55.192 1453.28 55.192ZM1464.25 55.288C1462.86 55.288 1461.62 54.944 1460.53 54.256C1459.44 53.568 1458.59 52.576 1457.96 51.28C1457.35 49.968 1457.05 48.408 1457.05 46.6C1457.05 44.792 1457.35 43.24 1457.96 41.944C1458.59 40.632 1459.44 39.632 1460.53 38.944C1461.62 38.256 1462.86 37.912 1464.25 37.912C1465.64 37.912 1466.88 38.256 1467.97 38.944C1469.06 39.632 1469.91 40.632 1470.51 41.944C1471.14 43.24 1471.45 44.792 1471.45 46.6C1471.45 48.408 1471.14 49.968 1470.51 51.28C1469.91 52.576 1469.06 53.568 1467.97 54.256C1466.88 54.944 1465.64 55.288 1464.25 55.288ZM1464.25 52C1465.27 52 1466.07 51.56 1466.65 50.68C1467.24 49.8 1467.54 48.44 1467.54 46.6C1467.54 44.76 1467.24 43.4 1466.65 42.52C1466.07 41.64 1465.27 41.2 1464.25 41.2C1463.24 41.2 1462.44 41.64 1461.85 42.52C1461.27 43.4 1460.99 44.76 1460.99 46.6C1460.99 48.44 1461.27 49.8 1461.85 50.68C1462.44 51.56 1463.24 52 1464.25 52Z" fill="#FAFAFA"/>
<defs>
<filter id="filter0_dd" x="358" y="174" width="242" height="52" filterUnits="userSpaceOnUse" color-interpolation-filters="sRGB">
<feFlood flood-opacity="0" result="BackgroundImageFix"/>
<feColorMatrix in="SourceAlpha" type="matrix" values="0 0 0 0 0 0 0 0 0 0 0 0 0 0 0 0 0 0 127 0" result="hardAlpha"/>
<feOffset dy="5"/>
<feGaussianBlur stdDeviation="10"/>
<feColorMatrix type="matrix" values="0 0 0 0 0.196078 0 0 0 0 0.933333 0 0 0 0 1 0 0 0 0.24 0"/>
<feBlend mode="normal" in2="BackgroundImageFix" result="effect1_dropShadow"/>
<feColorMatrix in="SourceAlpha" type="matrix" values="0 0 0 0 0 0 0 0 0 0 0 0 0 0 0 0 0 0 127 0" result="hardAlpha"/>
<feOffset dy="4"/>
<feGaussianBlur stdDeviation="3.5"/>
<feColorMatrix type="matrix" values="0 0 0 0 1 0 0 0 0 1 0 0 0 0 1 0 0 0 0.19 0"/>
<feBlend mode="normal" in2="effect1_dropShadow" result="effect2_dropShadow"/>
<feBlend mode="normal" in="SourceGraphic" in2="effect2_dropShadow" result="shape"/>
</filter>
</defs>
</svg>
